<svg xmlns="http://www.w3.org/2000/svg" xmlns:xlink="http://www.w3.org/1999/xlink"  preserveAspectRatio="none" width="100%" height="100%" viewBox="0 0 603 94.472">
  <defs>
    <linearGradient id="linear-gradient" x1="0.061" y1="0.614" x2="0.956" y2="0.648" gradientUnits="objectBoundingBox">
      <stop offset="0" stop-color="#a6b9af"/>
      <stop offset="1" stop-color="#199453" stop-opacity="0.8"/>
    </linearGradient>
    <filter id="Path_213" x="0" y="6.997" width="603" height="87.475" filterUnits="userSpaceOnUse">
      <feOffset dy="5" input="SourceAlpha"/>
      <feGaussianBlur stdDeviation="5" result="blur"/>
      <feFlood flood-opacity="0.302" result="color"/>
      <feComposite operator="out" in="SourceGraphic" in2="blur"/>
      <feComposite operator="in" in="color"/>
      <feComposite operator="in" in2="SourceGraphic"/>
    </filter>
    <filter id="Path_214" x="312.14" y="0" width="102.344" height="3.498" filterUnits="userSpaceOnUse">
      <feOffset dy="5" input="SourceAlpha"/>
      <feGaussianBlur stdDeviation="5" result="blur-2"/>
      <feFlood flood-opacity="0.302" result="color-2"/>
      <feComposite operator="out" in="SourceGraphic" in2="blur-2"/>
      <feComposite operator="in" in="color-2"/>
      <feComposite operator="in" in2="SourceGraphic"/>
    </filter>
    <filter id="Path_215" x="208.923" y="1.912" width="57.122" height="5.39" filterUnits="userSpaceOnUse">
      <feOffset dy="5" input="SourceAlpha"/>
      <feGaussianBlur stdDeviation="5" result="blur-3"/>
      <feFlood flood-opacity="0.302" result="color-3"/>
      <feComposite operator="out" in="SourceGraphic" in2="blur-3"/>
      <feComposite operator="in" in="color-3"/>
      <feComposite operator="in" in2="SourceGraphic"/>
    </filter>
    <filter id="Path_216" x="286.011" y="0.534" width="8.674" height="1.964" filterUnits="userSpaceOnUse">
      <feOffset dy="5" input="SourceAlpha"/>
      <feGaussianBlur stdDeviation="5" result="blur-4"/>
      <feFlood flood-opacity="0.302" result="color-4"/>
      <feComposite operator="out" in="SourceGraphic" in2="blur-4"/>
      <feComposite operator="in" in="color-4"/>
      <feComposite operator="in" in2="SourceGraphic"/>
    </filter>
    <filter id="Path_217" x="553.436" y="16.034" width="13.479" height="0.548" filterUnits="userSpaceOnUse">
      <feOffset dy="5" input="SourceAlpha"/>
      <feGaussianBlur stdDeviation="5" result="blur-5"/>
      <feFlood flood-opacity="0.302" result="color-5"/>
      <feComposite operator="out" in="SourceGraphic" in2="blur-5"/>
      <feComposite operator="in" in="color-5"/>
      <feComposite operator="in" in2="SourceGraphic"/>
    </filter>
    <filter id="Path_218" x="427.258" y="3.453" width="10.348" height="0.495" filterUnits="userSpaceOnUse">
      <feOffset dy="5" input="SourceAlpha"/>
      <feGaussianBlur stdDeviation="5" result="blur-6"/>
      <feFlood flood-opacity="0.302" result="color-6"/>
      <feComposite operator="out" in="SourceGraphic" in2="blur-6"/>
      <feComposite operator="in" in="color-6"/>
      <feComposite operator="in" in2="SourceGraphic"/>
    </filter>
  </defs>
  <g id="brush" transform="translate(-79.813 -1)">
    <g data-type="innerShadowGroup">
      <path id="Path_213-2" data-name="Path 213" d="M596.584,354.2c-9.089.66-18.108-.507-27.156-.627s-18.329-.354-27.583-.161l31.335,1.649v.434c-4.372-.209-8.744-.434-13.116-.62a28.114,28.114,0,0,0-2.965.08c-1.214.08-2.4.282-3.613.314-16.15.443-32.231-.282-48.271-1.038-5.82-.274-11.654-.587-17.488-.619A60.879,60.879,0,0,0,477,354.68l142.413,6.935c-1.326.144-2.667.235-4.013.274-10.247-.088-20.508-.249-30.755-.282a28.239,28.239,0,0,0-5.075,1.022l39.444,2.365v.418l-3.2,1.03,44.244,3.942c-1.917,1.5-.1,1.8,1.71,2.116l13.668,2.373.083.378-12.675.8v.579l5.779.9-5.586,1.046v.4l6.482.555-4.689,1.384,10.757,1.1.124.555-10.22.732c3.544,2.116,8.123,1.891,12.192,2.414l-.1.6c-3.227-.137-6.454-.29-9.654-.386s-6.317-.579-9.392.322c7.323,1.842,15.323,1.609,23.694,2.526-2.579,1.183-5.517,1.915-2.165,3.926H675.68c-4.289-.072-4.386,0-4.069,2.317l-7.351,1.5v.676l12.482,2.1a14.191,14.191,0,0,1-8.192,1.5c-4.138-.314-8.275-.346-12.413-.507l-.124.636c.99.018,1.976.077,2.951.177,1.765.265,4.138,0,4.138,1.8,0,.233,1.1.442,1.641.7.814.386,1.586.8,2.386,1.191-1.062.5-2.041,1.336-3.213,1.432-4.331.386-8.73.507-13.088.8-1.379.088-2.758.314-4.138.475v.668c2.358.418,4.731.8,7.034,1.287a13.152,13.152,0,0,1,2.482,1.03,9.721,9.721,0,0,1-2.593,1.384c-1.995.347-4.026.615-6.082.8,0,.346-.083.491,0,.555a22.6,22.6,0,0,1,2.579,1.746,21.5,21.5,0,0,1-5.075,2.808c-2.083.732-4.427.539-6.979.29-3.02-.3-6.317.4-9.654,1.022l12,2.518c.331,1.2-.455,1.858-3.186,1.561-3.1-.346-6.248-.6-9.378-.861a4.4,4.4,0,0,0-2.441.475l5.2,1.191c-5.075,1.907-10.151-.724-15.171-.145l-.221.716,17.309,2.14c-.152.3-.193.483-.248.483-3.076.048-5.213,1.352-7.861,1.939a34.022,34.022,0,0,1-6.027.418c-5.9.169-11.806.386-17.722.394q-4.9-.147-9.751-.579-10.675-.615-21.377-1.183c-4.137-.233-8.344-.579-12.537-.708q-32.838-.958-65.676-1.818c-2.938-.072-5.917.2-8.827.04-4.413-.241-8.771-.845-13.185-1.078-4.758-.249-9.571-.33-14.357-.338H404.811c-2.386,0-4.565.1-5.986,1.609a6.8,6.8,0,0,1-3.5.8c-8.578.08-17.171-.1-25.722.129-10.013.274-19.984.917-29.969,1.327-6.248.257-12.5.386-18.743.571l-4.744.153,3.2,1.191c-5.6.249-10.358.451-15.171.676l-38.548,1.883c-7.834,2.365-16.619,1.529-24.825,2.486-3.765.434-6.468-1.4-6-3.661a4.359,4.359,0,0,0-.759-1.907c2.579-1.834,6.9-1.963,10.909-2.558,2.758-.4,5.517-.941,8.165-1.456.414-.08.69-.378,1.1-.515a26.619,26.619,0,0,1,4.137-1.3q3.5-.467,7.075-.716v-.475c-.828,0-1.655-.129-2.482-.129-2.758,0-5.517.064-8.275,0-6.7-.185-13.419-.8-20.067-.579-11.116.338-22.246.925-33.266,1.858a170.314,170.314,0,0,0-23.6,3.331c-4.8,1.118-9.585.869-14.288,1.537-2.758.4-6.055-.33-9.1-.282-1.917,0-4.289.072-5.213,1.609l8.454-.6v.869c-10.04.8-19.86-.121-30.259-1.681l3.338-1.054c-7.613-1.118-15.171-1.931-23.032-1.344-7.678.461-15.4.619-23.115.475,3.558-2.245,8.9-1.03,13.075-2.574l.607-2.269-7.213-.563-.124-.547c3.145-.459,6.275-.973,9.447-1.336,2.151-.249,4.579,0,5.158-1.842.124-.418,1.476-.716,2.262-1.07l-.124-.571c-3.489,0-6.979-.064-10.468,0-1.793,0-3.448.346-3.917-1.183-.152-.491-1.379-.861-3.034-1.754l16.164-.965-2.3-1.609,4.138-1.7c-1.379-1.512-3.42-1.1-5.406-.8-3.007.451-6.041.845-9.061,1.263l-.262-.644,7.516-.965c-2.262-1.15-3.145-1.247-6.427-.885-2.3.257-4.634.4-7.337.636l.538-1.207-8.523-2.784c8.441-1.883,17.033-1.432,24.935-2.816l-.428-.418a11.845,11.845,0,0,1,2.758-1.279c3.158-.716,6.427-1.287,9.778-1.939-.483-.949-3.475-1.609.552-2.357l-.924-.41H101.683l-.29-.6,8.4-3.218c1.669-.644,3.282-1.368,5.034-1.931a27.923,27.923,0,0,1,4.689-1.11c5.517-.756,11.144-1.4,16.688-2.132a15.857,15.857,0,0,0,2.648-.877l-2.979-.418-.414-.3a3.539,3.539,0,0,1,.814-.113c5.82.5,11.033-1.336,16.729-1.488.69,0,1.379-.8,2.482-1.609-3.048,0-5.075.088-7.075,0-2.358-.137-5.131.475-6.7-1.36-.345-.4-2.427-.306-3.738-.571a71.588,71.588,0,0,1,13.212-1.287c4.087.01,8.171-.148,12.219-.475a3.431,3.431,0,0,0,2.331-1.5c.153-.911,1.542-1.577,3.1-1.488,5.135-.113,10.251-.435,15.309-.965a4.21,4.21,0,0,0-1.1-.314c-10.964.04-21.887.185-32.631,1.714a43.112,43.112,0,0,1-7.641.137c-.883,0-1.683-.708-2.524-1.094a12.326,12.326,0,0,1,2.069-1.3,16.059,16.059,0,0,1,2.51-.6,5.707,5.707,0,0,0,6.813-.056h-2.524c-.648,0-1.283,0-2.138.056,1.724-1.569,2.414-1.657,4.413-.708s4.951.088,5.737-1.738l6.9-1.3-.083-.66h-6.192a7.46,7.46,0,0,1-2.3-.129,1.936,1.936,0,0,1-1.2-1.247c0-.177,1.172-.587,1.848-.62,1.71-.1,3.448,0,5.213,0-.1-2.9,4.7-1.754,6.9-3.258H147.761v-.507L161,359.724l-.083-.483c-11.364,0-22.577,1.3-34.327,1.874,3.931-2.164,8.744-2.035,13.047-2.414,10.7-1,21.487-1.738,32.245-2.413,5.861-.394,11.778-.5,17.667-.8,8.275-.451,16.467-.925,24.687-1.488,7.075-.475,14.136-1.006,21.17-1.665,6.744-.636,13.405-1.553,20.136-2.212,8.661-.853,17.336-1.609,26.011-2.341a7.206,7.206,0,0,1,2.124,0,8.649,8.649,0,0,1,3.241,1.134c.359.322-.69,1.167-1.3,2.035,1.793,0,3.751.089,5.682,0,11.309-.6,22.618-1.271,33.928-1.842,7.834-.394,15.681-.8,23.542-.941,5.9-.1,11.916.6,17.75.241,19.736-1.223,39.513-.121,59.235-.636,15.061-.394,29.956.636,44.92,1.175,12.068.426,24.163.6,36.245.877,9.654.217,19.308.249,28.894.636,11.213.442,22.4,1.167,33.6,1.77q12.537.688,25.06,1.368c.758.04,1.5.161,2.248.241ZM174.075,369.121l-.441-1.167-14.854,2.357.276.7Z" transform="translate(0.583 -339.684)" fill="url(#linear-gradient)"/>
      <g transform="matrix(1, 0, 0, 1, 79.81, 1)" filter="url(#Path_213)">
        <path id="Path_213-3" data-name="Path 213" d="M596.584,354.2c-9.089.66-18.108-.507-27.156-.627s-18.329-.354-27.583-.161l31.335,1.649v.434c-4.372-.209-8.744-.434-13.116-.62a28.114,28.114,0,0,0-2.965.08c-1.214.08-2.4.282-3.613.314-16.15.443-32.231-.282-48.271-1.038-5.82-.274-11.654-.587-17.488-.619A60.879,60.879,0,0,0,477,354.68l142.413,6.935c-1.326.144-2.667.235-4.013.274-10.247-.088-20.508-.249-30.755-.282a28.239,28.239,0,0,0-5.075,1.022l39.444,2.365v.418l-3.2,1.03,44.244,3.942c-1.917,1.5-.1,1.8,1.71,2.116l13.668,2.373.083.378-12.675.8v.579l5.779.9-5.586,1.046v.4l6.482.555-4.689,1.384,10.757,1.1.124.555-10.22.732c3.544,2.116,8.123,1.891,12.192,2.414l-.1.6c-3.227-.137-6.454-.29-9.654-.386s-6.317-.579-9.392.322c7.323,1.842,15.323,1.609,23.694,2.526-2.579,1.183-5.517,1.915-2.165,3.926H675.68c-4.289-.072-4.386,0-4.069,2.317l-7.351,1.5v.676l12.482,2.1a14.191,14.191,0,0,1-8.192,1.5c-4.138-.314-8.275-.346-12.413-.507l-.124.636c.99.018,1.976.077,2.951.177,1.765.265,4.138,0,4.138,1.8,0,.233,1.1.442,1.641.7.814.386,1.586.8,2.386,1.191-1.062.5-2.041,1.336-3.213,1.432-4.331.386-8.73.507-13.088.8-1.379.088-2.758.314-4.138.475v.668c2.358.418,4.731.8,7.034,1.287a13.152,13.152,0,0,1,2.482,1.03,9.721,9.721,0,0,1-2.593,1.384c-1.995.347-4.026.615-6.082.8,0,.346-.083.491,0,.555a22.6,22.6,0,0,1,2.579,1.746,21.5,21.5,0,0,1-5.075,2.808c-2.083.732-4.427.539-6.979.29-3.02-.3-6.317.4-9.654,1.022l12,2.518c.331,1.2-.455,1.858-3.186,1.561-3.1-.346-6.248-.6-9.378-.861a4.4,4.4,0,0,0-2.441.475l5.2,1.191c-5.075,1.907-10.151-.724-15.171-.145l-.221.716,17.309,2.14c-.152.3-.193.483-.248.483-3.076.048-5.213,1.352-7.861,1.939a34.022,34.022,0,0,1-6.027.418c-5.9.169-11.806.386-17.722.394q-4.9-.147-9.751-.579-10.675-.615-21.377-1.183c-4.137-.233-8.344-.579-12.537-.708q-32.838-.958-65.676-1.818c-2.938-.072-5.917.2-8.827.04-4.413-.241-8.771-.845-13.185-1.078-4.758-.249-9.571-.33-14.357-.338H404.811c-2.386,0-4.565.1-5.986,1.609a6.8,6.8,0,0,1-3.5.8c-8.578.08-17.171-.1-25.722.129-10.013.274-19.984.917-29.969,1.327-6.248.257-12.5.386-18.743.571l-4.744.153,3.2,1.191c-5.6.249-10.358.451-15.171.676l-38.548,1.883c-7.834,2.365-16.619,1.529-24.825,2.486-3.765.434-6.468-1.4-6-3.661a4.359,4.359,0,0,0-.759-1.907c2.579-1.834,6.9-1.963,10.909-2.558,2.758-.4,5.517-.941,8.165-1.456.414-.08.69-.378,1.1-.515a26.619,26.619,0,0,1,4.137-1.3q3.5-.467,7.075-.716v-.475c-.828,0-1.655-.129-2.482-.129-2.758,0-5.517.064-8.275,0-6.7-.185-13.419-.8-20.067-.579-11.116.338-22.246.925-33.266,1.858a170.314,170.314,0,0,0-23.6,3.331c-4.8,1.118-9.585.869-14.288,1.537-2.758.4-6.055-.33-9.1-.282-1.917,0-4.289.072-5.213,1.609l8.454-.6v.869c-10.04.8-19.86-.121-30.259-1.681l3.338-1.054c-7.613-1.118-15.171-1.931-23.032-1.344-7.678.461-15.4.619-23.115.475,3.558-2.245,8.9-1.03,13.075-2.574l.607-2.269-7.213-.563-.124-.547c3.145-.459,6.275-.973,9.447-1.336,2.151-.249,4.579,0,5.158-1.842.124-.418,1.476-.716,2.262-1.07l-.124-.571c-3.489,0-6.979-.064-10.468,0-1.793,0-3.448.346-3.917-1.183-.152-.491-1.379-.861-3.034-1.754l16.164-.965-2.3-1.609,4.138-1.7c-1.379-1.512-3.42-1.1-5.406-.8-3.007.451-6.041.845-9.061,1.263l-.262-.644,7.516-.965c-2.262-1.15-3.145-1.247-6.427-.885-2.3.257-4.634.4-7.337.636l.538-1.207-8.523-2.784c8.441-1.883,17.033-1.432,24.935-2.816l-.428-.418a11.845,11.845,0,0,1,2.758-1.279c3.158-.716,6.427-1.287,9.778-1.939-.483-.949-3.475-1.609.552-2.357l-.924-.41H101.683l-.29-.6,8.4-3.218c1.669-.644,3.282-1.368,5.034-1.931a27.923,27.923,0,0,1,4.689-1.11c5.517-.756,11.144-1.4,16.688-2.132a15.857,15.857,0,0,0,2.648-.877l-2.979-.418-.414-.3a3.539,3.539,0,0,1,.814-.113c5.82.5,11.033-1.336,16.729-1.488.69,0,1.379-.8,2.482-1.609-3.048,0-5.075.088-7.075,0-2.358-.137-5.131.475-6.7-1.36-.345-.4-2.427-.306-3.738-.571a71.588,71.588,0,0,1,13.212-1.287c4.087.01,8.171-.148,12.219-.475a3.431,3.431,0,0,0,2.331-1.5c.153-.911,1.542-1.577,3.1-1.488,5.135-.113,10.251-.435,15.309-.965a4.21,4.21,0,0,0-1.1-.314c-10.964.04-21.887.185-32.631,1.714a43.112,43.112,0,0,1-7.641.137c-.883,0-1.683-.708-2.524-1.094a12.326,12.326,0,0,1,2.069-1.3,16.059,16.059,0,0,1,2.51-.6,5.707,5.707,0,0,0,6.813-.056h-2.524c-.648,0-1.283,0-2.138.056,1.724-1.569,2.414-1.657,4.413-.708s4.951.088,5.737-1.738l6.9-1.3-.083-.66h-6.192a7.46,7.46,0,0,1-2.3-.129,1.936,1.936,0,0,1-1.2-1.247c0-.177,1.172-.587,1.848-.62,1.71-.1,3.448,0,5.213,0-.1-2.9,4.7-1.754,6.9-3.258H147.761v-.507L161,359.724l-.083-.483c-11.364,0-22.577,1.3-34.327,1.874,3.931-2.164,8.744-2.035,13.047-2.414,10.7-1,21.487-1.738,32.245-2.413,5.861-.394,11.778-.5,17.667-.8,8.275-.451,16.467-.925,24.687-1.488,7.075-.475,14.136-1.006,21.17-1.665,6.744-.636,13.405-1.553,20.136-2.212,8.661-.853,17.336-1.609,26.011-2.341a7.206,7.206,0,0,1,2.124,0,8.649,8.649,0,0,1,3.241,1.134c.359.322-.69,1.167-1.3,2.035,1.793,0,3.751.089,5.682,0,11.309-.6,22.618-1.271,33.928-1.842,7.834-.394,15.681-.8,23.542-.941,5.9-.1,11.916.6,17.75.241,19.736-1.223,39.513-.121,59.235-.636,15.061-.394,29.956.636,44.92,1.175,12.068.426,24.163.6,36.245.877,9.654.217,19.308.249,28.894.636,11.213.442,22.4,1.167,33.6,1.77q12.537.688,25.06,1.368c.758.04,1.5.161,2.248.241ZM174.075,369.121l-.441-1.167-14.854,2.357.276.7Z" transform="translate(-79.23 -340.68)" fill="#fff"/>
      </g>
    </g>
    <g data-type="innerShadowGroup">
      <path id="Path_214-2" data-name="Path 214" d="M297,341.141a5.445,5.445,0,0,1,1.617-.62c8.408-.252,16.816-.629,25.237-.62,8.654,0,17.294.36,25.948.638,12.366.4,24.745.818,37.1,1.34,4.165.171,8.3.665,12.444,1.016v.5L297.155,341.95Z" transform="translate(94.953 -338.9)" fill="url(#linear-gradient)"/>
      <g transform="matrix(1, 0, 0, 1, 79.81, 1)" filter="url(#Path_214)">
        <path id="Path_214-3" data-name="Path 214" d="M297,341.141a5.445,5.445,0,0,1,1.617-.62c8.408-.252,16.816-.629,25.237-.62,8.654,0,17.294.36,25.948.638,12.366.4,24.745.818,37.1,1.34,4.165.171,8.3.665,12.444,1.016v.5L297.155,341.95Z" transform="translate(15.14 -339.9)" fill="#fff"/>
      </g>
    </g>
    <g data-type="innerShadowGroup">
      <path id="Path_215-2" data-name="Path 215" d="M292.092,345.159c-19.532-1.016-38.107.216-57.122,2.257.375-.728.44-1.367.776-1.448a52.986,52.986,0,0,1,7.593-1.61c5.588-.522,11.241-.818,16.816-1.1q14.074-.7,28.147-1.232c1.293,0,3.635-.153,1.966,1.727A14.836,14.836,0,0,0,292.092,345.159Z" transform="translate(53.766 -339.115)" fill="url(#linear-gradient)"/>
      <g transform="matrix(1, 0, 0, 1, 79.81, 1)" filter="url(#Path_215)">
        <path id="Path_215-3" data-name="Path 215" d="M292.092,345.159c-19.532-1.016-38.107.216-57.122,2.257.375-.728.44-1.367.776-1.448a52.986,52.986,0,0,1,7.593-1.61c5.588-.522,11.241-.818,16.816-1.1q14.074-.7,28.147-1.232c1.293,0,3.635-.153,1.966,1.727A14.836,14.836,0,0,0,292.092,345.159Z" transform="translate(-26.05 -340.11)" fill="#fff"/>
      </g>
    </g>
    <g data-type="innerShadowGroup">
      <path id="Path_216-2" data-name="Path 216" d="M287.27,342.379c1.578-1.4,6.468-2.311,8.085-1.682.285.108.647.441.582.593a1.256,1.256,0,0,1-.8.656,2.781,2.781,0,0,1-1.384,0c-1.565-.495-2.923-.611-4.23.414C289.236,342.568,288.279,342.379,287.27,342.379Z" transform="translate(78.554 -338.96)" fill="url(#linear-gradient)"/>
      <g transform="matrix(1, 0, 0, 1, 79.81, 1)" filter="url(#Path_216)">
        <path id="Path_216-3" data-name="Path 216" d="M287.27,342.379c1.578-1.4,6.468-2.311,8.085-1.682.285.108.647.441.582.593a1.256,1.256,0,0,1-.8.656,2.781,2.781,0,0,1-1.384,0c-1.565-.495-2.923-.611-4.23.414C289.236,342.568,288.279,342.379,287.27,342.379Z" transform="translate(-1.26 -339.96)" fill="#fff"/>
      </g>
    </g>
    <g data-type="innerShadowGroup">
      <path id="Path_217-2" data-name="Path 217" d="M450.793,357.73l13.375.468v.081H450.69Z" transform="translate(182.559 -340.696)" fill="url(#linear-gradient)"/>
      <g transform="matrix(1, 0, 0, 1, 79.81, 1)" filter="url(#Path_217)">
        <path id="Path_217-3" data-name="Path 217" d="M450.793,357.73l13.375.468v.081H450.69Z" transform="translate(102.75 -341.7)" fill="#fff"/>
      </g>
    </g>
    <g data-type="innerShadowGroup">
      <path id="Path_218-2" data-name="Path 218" d="M388.868,344.235H378.52v-.495h10.348Z" transform="translate(128.551 -339.287)" fill="url(#linear-gradient)"/>
      <g transform="matrix(1, 0, 0, 1, 79.81, 1)" filter="url(#Path_218)">
        <path id="Path_218-3" data-name="Path 218" d="M388.868,344.235H378.52v-.495h10.348Z" transform="translate(48.74 -340.29)" fill="#fff"/>
      </g>
    </g>
  </g>
</svg>
