<svg xmlns="http://www.w3.org/2000/svg" xmlns:xlink="http://www.w3.org/1999/xlink" width="100%" height="100%" viewBox="0 0 536 115.916">
  <defs>
    <filter id="Path_374" x="0" y="7.187" width="536" height="108.729" filterUnits="userSpaceOnUse">
      <feOffset input="SourceAlpha"/>
      <feGaussianBlur stdDeviation="5" result="blur"/>
      <feFlood flood-opacity="0.404" result="color"/>
      <feComposite operator="out" in="SourceGraphic" in2="blur"/>
      <feComposite operator="in" in="color"/>
      <feComposite operator="in" in2="SourceGraphic"/>
    </filter>
  </defs>
  <g id="Page_Title" data-name="Page Title" transform="translate(-691.999 -591.1)">
    <g id="brush" transform="translate(741.379 590.506)">
      <g data-type="innerShadowGroup">
        <path id="Path_374-2" data-name="Path 374" d="M539.1,355.78c-8.079.82-16.1-.63-24.139-.78s-16.293-.44-24.519-.2l27.853,2.05v.54c-3.886-.26-7.772-.54-11.659-.77a17.883,17.883,0,0,0-2.636.1c-1.079.1-2.133.35-3.212.39-14.356.55-28.65-.35-42.907-1.29-5.173-.34-10.359-.73-15.545-.77a39.323,39.323,0,0,0-9.538,1.33L559.389,365a32.466,32.466,0,0,1-3.567.34c-9.109-.11-18.23-.31-27.338-.35-1.336,0-2.672.73-4.511,1.27l35.062,2.94v.52L556.189,371l39.328,4.9c-1.7,1.86-.086,2.24,1.52,2.63l12.149,2.95.074.47-11.266,1v.72l5.137,1.12-4.965,1.3v.5l5.762.69L599.759,389l9.562,1.37.11.69-9.084.91c3.151,2.63,7.221,2.35,10.837,3l-.086.74c-2.869-.17-5.737-.36-8.582-.48s-5.615-.72-8.349.4c6.51,2.29,13.62,2,21.061,3.14-2.292,1.47-4.9,2.38-1.925,4.88h-3.9c-3.813-.09-3.9,0-3.617,2.88l-6.534,1.86v.84l11.095,2.61a9.631,9.631,0,0,1-7.282,1.86c-3.678-.39-7.356-.43-11.033-.63l-.11.79a22.729,22.729,0,0,1,2.623.22c1.569.33,3.678,0,3.678,2.24,0,.29.981.55,1.459.87.723.48,1.41,1,2.121,1.48-.944.62-1.814,1.66-2.856,1.78-3.849.48-7.76.63-11.634,1-1.226.11-2.452.39-3.678.59v.83c2.1.52,4.2,1,6.252,1.6a10.2,10.2,0,0,1,2.207,1.28,8.255,8.255,0,0,1-2.3,1.72,49.834,49.834,0,0,1-5.406,1c0,.43-.074.61,0,.69a21.313,21.313,0,0,1,2.292,2.17,18.552,18.552,0,0,1-4.511,3.49c-1.851.91-3.935.67-6.2.36-2.685-.37-5.615.5-8.582,1.27l10.666,3.13c.294,1.49-.4,2.31-2.832,1.94-2.758-.43-5.553-.75-8.336-1.07a3,3,0,0,0-2.17.59l4.622,1.48c-4.511,2.37-9.023-.9-13.485-.18l-.2.89,15.385,2.66c-.135.37-.172.6-.221.6-2.734.06-4.634,1.68-6.988,2.41a21.81,21.81,0,0,1-5.357.52c-5.247.21-10.494.48-15.753.49q-4.353-.182-8.667-.72-9.489-.765-19-1.47c-3.678-.29-7.417-.72-11.144-.88q-29.189-1.19-58.379-2.26c-2.611-.09-5.259.25-7.846.05-3.923-.3-7.8-1.05-11.72-1.34-4.229-.31-8.508-.41-12.762-.42H368.635c-2.121,0-4.058.12-5.321,2a4.712,4.712,0,0,1-3.114,1c-7.625.1-15.263-.13-22.864.16-8.9.34-17.764,1.14-26.639,1.65-5.553.32-11.107.48-16.66.71l-4.217.19,2.844,1.48c-4.977.31-9.207.56-13.485.84l-34.265,2.34c-6.963,2.94-14.772,1.9-22.067,3.09-3.347.54-5.75-1.74-5.333-4.55a6.8,6.8,0,0,0-.674-2.37c2.292-2.28,6.13-2.44,9.7-3.18,2.452-.5,4.9-1.17,7.257-1.81.368-.1.613-.47.981-.64a19.16,19.16,0,0,1,3.678-1.61q3.113-.581,6.289-.89v-.59c-.736,0-1.471-.16-2.207-.16-2.452,0-4.9.08-7.356,0-5.958-.23-11.928-1-17.837-.72-9.881.42-19.774,1.15-29.569,2.31a111.443,111.443,0,0,0-20.976,4.14c-4.266,1.39-8.52,1.08-12.7,1.91-2.452.5-5.382-.41-8.091-.35-1.7,0-3.813.09-4.634,2l7.515-.75v1.08c-8.925,1-17.653-.15-26.9-2.09l2.967-1.31c-6.767-1.39-13.485-2.4-20.473-1.67a187.121,187.121,0,0,1-20.547.59c3.163-2.79,7.907-1.28,11.622-3.2l.539-2.82-6.412-.7-.11-.68c2.8-.57,5.578-1.21,8.4-1.66,1.912-.31,4.07,0,4.585-2.29.11-.52,1.312-.89,2.011-1.33l-.11-.71c-3.1,0-6.2-.08-9.3,0-1.594,0-3.065.43-3.482-1.47-.135-.61-1.226-1.07-2.7-2.18l14.368-1.2-2.047-2,3.678-2.11c-1.226-1.88-3.04-1.37-4.806-1-2.673.56-5.37,1.05-8.054,1.57l-.233-.8,6.681-1.2c-2.011-1.43-2.8-1.55-5.713-1.1-2.047.32-4.119.5-6.522.79l.478-1.5-7.576-3.46c7.5-2.34,15.14-1.78,22.165-3.5l-.38-.52a9.545,9.545,0,0,1,2.452-1.59c2.807-.89,5.713-1.6,8.692-2.41-.429-1.18-3.089-2,.49-2.93l-.821-.51H99.188l-.257-.75,7.466-4c1.483-.8,2.918-1.7,4.475-2.4a19.149,19.149,0,0,1,4.168-1.38c4.9-.94,9.906-1.74,14.834-2.65a11.552,11.552,0,0,0,2.354-1.09l-2.648-.52-.368-.37a2.32,2.32,0,0,1,.723-.14c5.173.62,9.807-1.66,14.87-1.85.613,0,1.226-1,2.207-2-2.709,0-4.511.11-6.289,0-2.1-.17-4.56.59-5.958-1.69-.306-.5-2.158-.38-3.322-.71a46.219,46.219,0,0,1,11.744-1.6,93.988,93.988,0,0,0,10.862-.59,3.192,3.192,0,0,0,2.072-1.86,2.441,2.441,0,0,1,2.758-1.85,119.121,119.121,0,0,0,13.608-1.2,2.975,2.975,0,0,0-.981-.39c-9.746.05-19.455.23-29.005,2.13a27.468,27.468,0,0,1-6.792.17c-.785,0-1.5-.88-2.243-1.36a11.244,11.244,0,0,1,1.839-1.62,11.035,11.035,0,0,1,2.231-.75,3.971,3.971,0,0,0,6.056-.07h-2.243a18.982,18.982,0,0,0-1.9.07c1.532-1.95,2.145-2.06,3.923-.88a3.513,3.513,0,0,0,5.1-2.16l6.13-1.62-.074-.82h-5.5a4.793,4.793,0,0,1-2.047-.16,2.259,2.259,0,0,1-1.067-1.55c0-.22,1.042-.73,1.643-.77,1.52-.12,3.065,0,4.634,0-.086-3.61,4.18-2.18,6.13-4.05H140.146v-.63l11.769-1.4-.074-.6c-10.1,0-20.068,1.62-30.513,2.33,3.494-2.69,7.772-2.53,11.6-3,9.513-1.24,19.1-2.16,28.662-3,5.21-.49,10.469-.62,15.7-1,7.356-.56,14.638-1.15,21.944-1.85,6.289-.59,12.566-1.25,18.818-2.07,5.995-.79,11.916-1.93,17.9-2.75,7.7-1.06,15.41-2,23.121-2.91a4.6,4.6,0,0,1,1.888,0,6.431,6.431,0,0,1,2.881,1.41c.319.4-.613,1.45-1.152,2.53,1.594,0,3.335.11,5.051,0,10.053-.74,20.105-1.58,30.158-2.29,6.963-.49,13.939-1,20.927-1.17,5.247-.13,10.592.75,15.778.3,17.543-1.52,35.123-.15,52.654-.79,13.387-.49,26.627.79,39.928,1.46,10.727.53,21.478.75,32.217,1.09,8.581.27,17.163.31,25.683.79,9.967.55,19.909,1.45,29.864,2.2,7.429.57,14.846,1.12,22.275,1.7.674.05,1.336.2,2,.3ZM163.537,374.33l-.392-1.45-13.2,2.93.245.87Z" transform="translate(-128.61 -339.9)" fill="#fff"/>
        <g transform="matrix(1, 0, 0, 1, -49.38, 0.59)" filter="url(#Path_374)">
          <path id="Path_374-3" data-name="Path 374" d="M539.1,355.78c-8.079.82-16.1-.63-24.139-.78s-16.293-.44-24.519-.2l27.853,2.05v.54c-3.886-.26-7.772-.54-11.659-.77a17.883,17.883,0,0,0-2.636.1c-1.079.1-2.133.35-3.212.39-14.356.55-28.65-.35-42.907-1.29-5.173-.34-10.359-.73-15.545-.77a39.323,39.323,0,0,0-9.538,1.33L559.389,365a32.466,32.466,0,0,1-3.567.34c-9.109-.11-18.23-.31-27.338-.35-1.336,0-2.672.73-4.511,1.27l35.062,2.94v.52L556.189,371l39.328,4.9c-1.7,1.86-.086,2.24,1.52,2.63l12.149,2.95.074.47-11.266,1v.72l5.137,1.12-4.965,1.3v.5l5.762.69L599.759,389l9.562,1.37.11.69-9.084.91c3.151,2.63,7.221,2.35,10.837,3l-.086.74c-2.869-.17-5.737-.36-8.582-.48s-5.615-.72-8.349.4c6.51,2.29,13.62,2,21.061,3.14-2.292,1.47-4.9,2.38-1.925,4.88h-3.9c-3.813-.09-3.9,0-3.617,2.88l-6.534,1.86v.84l11.095,2.61a9.631,9.631,0,0,1-7.282,1.86c-3.678-.39-7.356-.43-11.033-.63l-.11.79a22.729,22.729,0,0,1,2.623.22c1.569.33,3.678,0,3.678,2.24,0,.29.981.55,1.459.87.723.48,1.41,1,2.121,1.48-.944.62-1.814,1.66-2.856,1.78-3.849.48-7.76.63-11.634,1-1.226.11-2.452.39-3.678.59v.83c2.1.52,4.2,1,6.252,1.6a10.2,10.2,0,0,1,2.207,1.28,8.255,8.255,0,0,1-2.3,1.72,49.834,49.834,0,0,1-5.406,1c0,.43-.074.61,0,.69a21.313,21.313,0,0,1,2.292,2.17,18.552,18.552,0,0,1-4.511,3.49c-1.851.91-3.935.67-6.2.36-2.685-.37-5.615.5-8.582,1.27l10.666,3.13c.294,1.49-.4,2.31-2.832,1.94-2.758-.43-5.553-.75-8.336-1.07a3,3,0,0,0-2.17.59l4.622,1.48c-4.511,2.37-9.023-.9-13.485-.18l-.2.89,15.385,2.66c-.135.37-.172.6-.221.6-2.734.06-4.634,1.68-6.988,2.41a21.81,21.81,0,0,1-5.357.52c-5.247.21-10.494.48-15.753.49q-4.353-.182-8.667-.72-9.489-.765-19-1.47c-3.678-.29-7.417-.72-11.144-.88q-29.189-1.19-58.379-2.26c-2.611-.09-5.259.25-7.846.05-3.923-.3-7.8-1.05-11.72-1.34-4.229-.31-8.508-.41-12.762-.42H368.635c-2.121,0-4.058.12-5.321,2a4.712,4.712,0,0,1-3.114,1c-7.625.1-15.263-.13-22.864.16-8.9.34-17.764,1.14-26.639,1.65-5.553.32-11.107.48-16.66.71l-4.217.19,2.844,1.48c-4.977.31-9.207.56-13.485.84l-34.265,2.34c-6.963,2.94-14.772,1.9-22.067,3.09-3.347.54-5.75-1.74-5.333-4.55a6.8,6.8,0,0,0-.674-2.37c2.292-2.28,6.13-2.44,9.7-3.18,2.452-.5,4.9-1.17,7.257-1.81.368-.1.613-.47.981-.64a19.16,19.16,0,0,1,3.678-1.61q3.113-.581,6.289-.89v-.59c-.736,0-1.471-.16-2.207-.16-2.452,0-4.9.08-7.356,0-5.958-.23-11.928-1-17.837-.72-9.881.42-19.774,1.15-29.569,2.31a111.443,111.443,0,0,0-20.976,4.14c-4.266,1.39-8.52,1.08-12.7,1.91-2.452.5-5.382-.41-8.091-.35-1.7,0-3.813.09-4.634,2l7.515-.75v1.08c-8.925,1-17.653-.15-26.9-2.09l2.967-1.31c-6.767-1.39-13.485-2.4-20.473-1.67a187.121,187.121,0,0,1-20.547.59c3.163-2.79,7.907-1.28,11.622-3.2l.539-2.82-6.412-.7-.11-.68c2.8-.57,5.578-1.21,8.4-1.66,1.912-.31,4.07,0,4.585-2.29.11-.52,1.312-.89,2.011-1.33l-.11-.71c-3.1,0-6.2-.08-9.3,0-1.594,0-3.065.43-3.482-1.47-.135-.61-1.226-1.07-2.7-2.18l14.368-1.2-2.047-2,3.678-2.11c-1.226-1.88-3.04-1.37-4.806-1-2.673.56-5.37,1.05-8.054,1.57l-.233-.8,6.681-1.2c-2.011-1.43-2.8-1.55-5.713-1.1-2.047.32-4.119.5-6.522.79l.478-1.5-7.576-3.46c7.5-2.34,15.14-1.78,22.165-3.5l-.38-.52a9.545,9.545,0,0,1,2.452-1.59c2.807-.89,5.713-1.6,8.692-2.41-.429-1.18-3.089-2,.49-2.93l-.821-.51H99.188l-.257-.75,7.466-4c1.483-.8,2.918-1.7,4.475-2.4a19.149,19.149,0,0,1,4.168-1.38c4.9-.94,9.906-1.74,14.834-2.65a11.552,11.552,0,0,0,2.354-1.09l-2.648-.52-.368-.37a2.32,2.32,0,0,1,.723-.14c5.173.62,9.807-1.66,14.87-1.85.613,0,1.226-1,2.207-2-2.709,0-4.511.11-6.289,0-2.1-.17-4.56.59-5.958-1.69-.306-.5-2.158-.38-3.322-.71a46.219,46.219,0,0,1,11.744-1.6,93.988,93.988,0,0,0,10.862-.59,3.192,3.192,0,0,0,2.072-1.86,2.441,2.441,0,0,1,2.758-1.85,119.121,119.121,0,0,0,13.608-1.2,2.975,2.975,0,0,0-.981-.39c-9.746.05-19.455.23-29.005,2.13a27.468,27.468,0,0,1-6.792.17c-.785,0-1.5-.88-2.243-1.36a11.244,11.244,0,0,1,1.839-1.62,11.035,11.035,0,0,1,2.231-.75,3.971,3.971,0,0,0,6.056-.07h-2.243a18.982,18.982,0,0,0-1.9.07c1.532-1.95,2.145-2.06,3.923-.88a3.513,3.513,0,0,0,5.1-2.16l6.13-1.62-.074-.82h-5.5a4.793,4.793,0,0,1-2.047-.16,2.259,2.259,0,0,1-1.067-1.55c0-.22,1.042-.73,1.643-.77,1.52-.12,3.065,0,4.634,0-.086-3.61,4.18-2.18,6.13-4.05H140.146v-.63l11.769-1.4-.074-.6c-10.1,0-20.068,1.62-30.513,2.33,3.494-2.69,7.772-2.53,11.6-3,9.513-1.24,19.1-2.16,28.662-3,5.21-.49,10.469-.62,15.7-1,7.356-.56,14.638-1.15,21.944-1.85,6.289-.59,12.566-1.25,18.818-2.07,5.995-.79,11.916-1.93,17.9-2.75,7.7-1.06,15.41-2,23.121-2.91a4.6,4.6,0,0,1,1.888,0,6.431,6.431,0,0,1,2.881,1.41c.319.4-.613,1.45-1.152,2.53,1.594,0,3.335.11,5.051,0,10.053-.74,20.105-1.58,30.158-2.29,6.963-.49,13.939-1,20.927-1.17,5.247-.13,10.592.75,15.778.3,17.543-1.52,35.123-.15,52.654-.79,13.387-.49,26.627.79,39.928,1.46,10.727.53,21.478.75,32.217,1.09,8.581.27,17.163.31,25.683.79,9.967.55,19.909,1.45,29.864,2.2,7.429.57,14.846,1.12,22.275,1.7.674.05,1.336.2,2,.3ZM163.537,374.33l-.392-1.45-13.2,2.93.245.87Z" transform="translate(-79.23 -340.49)" fill="#fff"/>
        </g>
      </g>
      <path id="Path_377" data-name="Path 377" d="M287.27,342.59c1.22-1.56,5-2.57,6.25-1.87.22.12.5.49.45.66a1.16,1.16,0,0,1-.62.73,1.52,1.52,0,0,1-1.07,0c-1.21-.55-2.26-.68-3.27.46C288.79,342.8,288.05,342.59,287.27,342.59Z" transform="translate(-79.22 -339.9)" fill="#fff"/>
      <path id="Path_378" data-name="Path 378" d="M450.77,357.73l10.34.52v.09H450.69Z" transform="translate(-79.22 -339.9)" fill="#fff"/>
      <path id="Path_379" data-name="Path 379" d="M386.52,344.29h-8v-.55h8Z" transform="translate(-79.22 -339.9)" fill="#fff"/>
      <path id="Path_380" data-name="Path 380" d="M119.91,454.2l-4.82-.26v-.91l4.77.44Z" transform="translate(-79.22 -339.9)" fill="#fff"/>
    </g>

  </g>
</svg>
