<svg id="Layer_1" data-name="Layer 1" xmlns="http://www.w3.org/2000/svg" height="30" width="30" viewBox="0 0 384 384"><defs><style>.cls-1{fill:#fff;}</style></defs><path class="cls-1" d="M875,576H491V192H875ZM619.5,446.06c2,1.13,3.26,1.83,4.52,2.59,15.71,9.44,31.45,18.84,47.12,28.37,8.21,5,16.14,5.23,24.5.07,15.81-9.77,31.82-19.2,47.76-28.77,1.09-.65,2.21-1.25,3.93-2.22v65.79H853.81v-4.63q0-37.51,0-75c0-3.5-.14-7-.39-10.49-1.86-25.74-23.18-46.62-48.91-48.22-11.81-.74-22.48,2.7-32.43,8.5q-42.82,24.95-85.4,50.36c-2.52,1.5-4.23,1.35-6.65-.09Q645.12,411.54,610.1,391c-7.53-4.41-15-9.11-22.89-12.65-34.48-15.4-72.58,8-73.79,45.79-.92,28.48-.32,57-.38,85.51a13.76,13.76,0,0,0,.34,2.17H619.5Zm13-66.2c16.51,9.68,32.83,19.29,49.24,28.72,1,.58,3.1.16,4.27-.51,12.54-7.19,25-14.52,37.48-21.82,3.64-2.13,7.27-4.27,10.81-6.36-4.32-19.15-25.24-35.88-46.19-37.2C662.42,341.08,641.48,355,632.45,379.86ZM598.11,320.2a31.88,31.88,0,1,0-32,31.85A32,32,0,0,0,598.11,320.2Zm234.27-.09a31.87,31.87,0,1,0-31.92,31.94C817.85,352.17,832.38,337.63,832.38,320.11ZM683.35,256a32.16,32.16,0,0,0-31.84,32c.06,17.5,14.57,32,32,32s32-14.77,31.93-32.08A32.38,32.38,0,0,0,683.35,256Z" transform="translate(-491 -192)"/><path d="M619.5,446.06v65.79H513.38a13.76,13.76,0,0,1-.34-2.17c.06-28.51-.54-57,.38-85.51,1.21-37.8,39.31-61.19,73.79-45.79,7.93,3.54,15.36,8.24,22.89,12.65q35,20.52,69.91,41.27c2.42,1.44,4.13,1.59,6.65.09q42.62-25.33,85.4-50.36c10-5.8,20.62-9.24,32.43-8.5,25.73,1.6,47,22.48,48.91,48.22.25,3.49.39,7,.39,10.49q0,37.51,0,75v4.63H747.33V446.1c-1.72,1-2.84,1.57-3.93,2.22-15.94,9.57-31.95,19-47.76,28.77-8.36,5.16-16.29,4.92-24.5-.07-15.67-9.53-31.41-18.93-47.12-28.37C622.76,447.89,621.47,447.19,619.5,446.06Z" transform="translate(-491 -192)"/><path d="M632.45,379.86c9-24.89,30-38.78,55.61-37.17,21,1.32,41.87,18.05,46.19,37.2-3.54,2.09-7.17,4.23-10.81,6.36C711,393.55,698.5,400.88,686,408.07c-1.17.67-3.25,1.09-4.27.51C665.28,399.15,649,389.54,632.45,379.86Z" transform="translate(-491 -192)"/><path d="M598.11,320.2A31.88,31.88,0,1,1,566.44,288,32.06,32.06,0,0,1,598.11,320.2Z" transform="translate(-491 -192)"/><path d="M832.38,320.11c0,17.52-14.53,32.06-31.92,31.94a32,32,0,1,1,31.92-31.94Z" transform="translate(-491 -192)"/><path d="M683.35,256a32.38,32.38,0,0,1,32,31.93c0,17.31-14.6,32-31.93,32.08s-31.89-14.46-32-32A32.16,32.16,0,0,1,683.35,256Z" transform="translate(-491 -192)"/></svg>