<svg width="100%" height="100%" viewBox="0 0 128 112" fill="none" preserveAspectRatio="none" xmlns="http://www.w3.org/2000/svg">
<path d="M29.6999 2.9C29.0999 4.6 27.9999 5.8 27.2999 5.6C23.8999 4.3 14.1999 3.8 13.4999 5C12.2999 6.9 14.4999 8.2 21.1999 9.4L27.4999 10.6L27.1999 14C27.0999 15.9 26.7999 17.5 26.6999 17.7C26.4999 17.8 23.9999 17.3 20.9999 16.5C13.5999 14.5 11.9999 14.6 11.9999 17C11.9999 18.5 13.3999 19.3 18.9999 21C27.7999 23.6 28.3999 25.8 20.2999 25.6L14.4999 25.5L13.1999 33.3C12.3999 37.5 11.9999 41.7 12.2999 42.4C12.5999 43.2 14.8999 44.2 17.4999 44.5C21.9999 45.2 21.9999 45.2 21.3999 48.6C20.8999 51.2 21.1999 52.1 22.4999 52.6C23.3999 53 24.4999 52.9 24.9999 52.4C25.4999 51.9 26.8999 45.6 28.0999 38.5C29.2999 31.3 30.5999 25.2 30.8999 24.8C31.1999 24.4 31.9999 24.4 32.6999 24.8C33.4999 25.3 32.8999 30.6 30.3999 44.5C28.5999 55 26.9999 65.1 26.9999 67C26.9999 68.9 28.3999 75.7 29.9999 82C32.0999 90.5 32.5999 93.6 31.6999 94.2C31.0999 94.6 30.1999 94.6 29.8999 94.2C28.2999 92.4 23.1999 66.2 23.6999 62.4C23.9999 59.8 23.6999 58 22.9999 57.5C21.2999 56.4 19.9999 58.2 18.8999 62.8C18.1999 66.1 18.4999 69.1 20.4999 77.2C21.8999 82.9 22.9999 87.8 22.9999 88.2C22.9999 88.7 20.9999 89 18.5999 89C15.9999 89 13.7999 89.6 12.9999 90.5C12.2999 91.3 10.5999 92 9.0999 92C4.4999 92 1.9999 93.1 1.9999 95.1C1.9999 96.6 2.6999 97 5.9999 97C8.1999 97 9.9999 97.3 9.9999 97.7C9.9999 98.1 9.2999 100.3 8.3999 102.7C6.9999 106.2 6.2999 106.9 3.5999 107.2C1.2999 107.4 0.399902 108 0.199902 109.7L-0.100098 112H62.8999C105.6 112 126.1 111.7 126.5 111C127.4 109.5 125.3 107.2 122.8 106.8C121.3 106.6 120 104.6 117.9 99C114.5 90.2 114.4 89.6 116.9 91C120.1 92.7 122.5 92.2 125.3 89.2C129.5 84.8 128.9 82.3 121.6 75.1C117.2 70.8 114.7 68.9 113.6 69.3C110.9 70.4 111.8 72.2 117.7 78.2C122.6 83.2 123.2 84.1 122 85.5C120.8 86.9 119.2 85.7 108.1 74.6L95.4999 62L89.4999 62.1C86.1999 62.1 77.7999 62.7 70.7999 63.4L57.9999 64.6V62.4C57.9999 59.8 58.7999 59.7 80.7999 57.9L96.0999 56.6L101.9 62.4C105.2 65.7 108.3 67.9 108.9 67.6C111.3 66.1 109.8 63.1 104 57.5L97.8999 51.8L91.8999 52.2C87.0999 52.5 85.9999 52.4 86.4999 51.2C86.7999 50.5 86.9999 49.4 86.9999 48.9C86.9999 48.4 88.1999 47.5 89.5999 47C91.2999 46.3 91.9999 45.4 91.7999 44.2C91.3999 42.3 89.4999 42.2 75.7999 43.5C69.3999 44 67.9999 44.5 67.9999 45.9C67.9999 46.8 68.4999 48.1 69.0999 48.7C69.6999 49.3 69.8999 50.7 69.5999 51.8C68.8999 53.9 65.2999 55 59.4999 55C53.7999 55 52.9999 55.7 52.9999 61C52.9999 67.6 53.6999 69 56.9999 69H59.6999L56.0999 79L52.4999 89L48.9999 88.4C47.0999 88 45.3999 87.6 45.1999 87.5C44.9999 87.3 44.4999 84.1 43.8999 80.4C42.3999 69.6 42.0999 69 39.9999 69C37.5999 69 37.4999 70.2 39.1999 81.8C40.0999 88.9 40.0999 90.3 38.8999 91.1C37.7999 91.8 36.9999 89.8 34.7999 80.7C33.2999 74.6 31.9999 68.2 31.9999 66.6C31.9999 63.8 37.9999 27.9 38.5999 27.1C38.7999 26.9 41.8999 27.5 45.5999 28.4C49.9999 29.5 52.5999 29.8 53.2999 29.1C55.2999 27.1 52.9999 25.2 46.1999 23.5L39.2999 21.7L40.1999 17.6C40.6999 15.4 41.1999 13.4 41.3999 13.3C41.4999 13.2 44.5999 13.6 48.2999 14.2C53.2999 15 55.3999 15 56.1999 14.2C58.0999 12.3 55.3999 10.3 50.1999 9.6C42.5999 8.5 41.9999 8.1 41.9999 5C41.9999 1.5 41.4999 1.2 35.4999 0.399998C31.0999 -0.300002 30.8999 -0.200002 29.6999 2.9ZM36.9999 6C36.9999 6.5 36.2999 7 35.4999 7C34.6999 7 33.9999 6.5 33.9999 6C33.9999 5.4 34.6999 5 35.4999 5C36.2999 5 36.9999 5.4 36.9999 6ZM35.9999 12.9C35.9999 16 34.4999 20 33.3999 20C31.9999 20 31.4999 16.4 32.5999 13.6C33.1999 11.9 35.9999 11.4 35.9999 12.9ZM23.4999 31.1C23.8999 31.7 23.8999 34.1 23.5999 36.4C22.9999 40.4 22.7999 40.6 19.8999 40.2C17.0999 39.8 16.9999 39.6 17.5999 36.1C17.8999 34.1 18.2999 31.9 18.4999 31.2C18.9999 29.7 22.5999 29.6 23.4999 31.1ZM81.3999 50.2C80.5999 53 81.0999 52.6 77.2999 53.3C74.1999 53.9 74.0999 53.9 75.1999 51C75.9999 48.6 76.7999 48 79.1999 48C81.7999 48 82.0999 48.3 81.3999 50.2ZM101.7 76.2C111.9 86.5 111.9 86.5 110.6 89.5C109.4 92.2 108.5 92.7 102.5 93.9L95.7999 95.3L93.5999 92.6C91.9999 90.5 89.6999 89.5 82.9999 88L74.4999 86L70.0999 89.1C66.3999 91.7 65.1999 92 61.8999 91.5C59.6999 91.1 57.9999 90.3 57.9999 89.5C57.9999 87.7 64.0999 70.7 65.1999 69.5C65.6999 69 71.5999 68 78.2999 67.4C84.9999 66.8 90.6999 66.2 90.9999 66.1C91.2999 66.1 96.0999 70.6 101.7 76.2ZM88.7999 94.5C90.9999 95.3 90.0999 96.9 87.2999 97.2C85.0999 97.4 83.8999 98.6 81.9999 102.2L79.4999 107H50.8999H22.3999L19.0999 102.4C15.3999 97.1 15.3999 94.6 19.0999 94.2C21.0999 94 21.8999 94.6 23.2999 97.5C24.3999 99.8 25.6999 101 26.9999 101C28.0999 101 33.0999 99.2 38.0999 96.9L47.1999 92.8L55.5999 94.9C66.2999 97.6 67.7999 97.5 71.8999 94.1L75.3999 91.3L81.3999 92.6C84.7999 93.4 88.0999 94.2 88.7999 94.5ZM113 99.5C113.5 100.9 114.3 103.2 114.6 104.5L115.2 107H100.1H84.9999L86.1999 104.5C86.7999 103.1 88.2999 101.7 89.3999 101.5C94.0999 100.4 109.6 97.2 110.8 97.1C111.5 97 112.5 98.1 113 99.5ZM14.8999 105.2C16.0999 106.8 15.9999 107 14.1999 107C12.6999 107 12.2999 106.5 12.6999 105C12.9999 103.8 13.2999 103.1 13.3999 103.2C13.4999 103.4 14.1999 104.3 14.8999 105.2Z" fill="black"/>
<path d="M84.2 73C82 73.9 80 77.6 80 80.6C80 83 84.7 87 87.5 87C90.8 87 95 82.9 95 79.7C95 74.6 89.1 71 84.2 73ZM89.8 79.3C90.2 81.4 87.3 82.7 85.8 81.2C85 80.4 85 79.6 86 78.5C87.6 76.6 89.4 77 89.8 79.3Z" fill="black"/>
<path d="M41.7997 98.6999C38.1997 100.9 38.0997 104 41.3997 104C42.7997 104 44.1997 103.5 44.4997 103C45.5997 101.2 51.2997 101.9 53.5997 104.1C55.9997 106.3 58.9997 106.1 58.9997 103.8C58.9997 103.1 58.0997 101.4 57.0997 100.1C54.5997 96.8999 45.8997 96.0999 41.7997 98.6999Z" fill="black"/>
</svg>
