<svg xmlns="http://www.w3.org/2000/svg" width="552.441" height="65.582" viewBox="0 0 552.441 65.582">
  <path id="straightbrush2" d="M655.61,406.61a57.485,57.485,0,0,1-12.683,1c-1.268,0-1.705.669-1.015,1.428.8.881.507,1.193-1.226,1.223q-4.476.243-8.878.76c-2.649.2-5.284.486-7.877.805s-5.143.76-7.75,1c-4.467.441-8.836,1.17-13.4,1.322-.778,0-1.409.34-1.409.76,0,.479.9.311,1.409.311,3.114,0,6.229.076,9.329,0,5.637-.137,11.119.76,16.741.577.578,0,1.015.046,1.043.448s0,.9-1.029.98c-1.564.122-3.128.213-4.707.281-4.8.248-9.555.687-14.233,1.314-2.256.313-4.469.708-6.623,1.185-1.578.327-2.959-.327-4.326-.676a4.11,4.11,0,0,0-3,.091,21.734,21.734,0,0,1-5.75,1.124c-2.818.3-5.637.608-8.455.76-1.24.061-.789.661-.521,1.018,1.085,1.519.9,1.679-1.973,1.9a26.516,26.516,0,0,1-3.509.289c-.789-.038-1.635-.053-1.649.6s.127,1.086,1.409,1.155a21.37,21.37,0,0,1,4.65.691c.437.122.9.213.761.517a1.327,1.327,0,0,1-1.2.463c-5.388.225-10.742.649-16.023,1.269q-5.808.672-11.443,1.7a15.189,15.189,0,0,0-6.257,2.089c-.3.228-.521.57-1.127.517-1.621-.137-3.1.273-4.693.281a77.017,77.017,0,0,0-16.981,2.279,7.511,7.511,0,0,1-2.692.084c-2.128-.334-4.354-.387-6.454-.76a5.561,5.561,0,0,0-2.818.243c-2.114.7-4.636.691-7.046.874-6,.381-12.048.554-18.094.517-4.979.093-9.944.347-14.867.76-3.847.289-7.736.479-11.583.851-3.1.3-6.384.319-9.54.593a19.377,19.377,0,0,1-6.736-.593,21.415,21.415,0,0,0-6.285-.144c-5.707.357-11.428.182-17.136.243-8.906.084-17.826.046-26.775.205-29.508.532-59.017.114-88.525.243H285.19c-.648,0-1.508-.16-1.9.122-1.311.934-2.818.608-4.228.236-3.34-.9-6.975-.76-10.442-.76-16.29-.106-32.566-.068-48.857,0a48.944,48.944,0,0,0-7.4.41,5.765,5.765,0,0,1-3.438-.547,5.541,5.541,0,0,0-2.818-.387c-1.973.061-3.96,0-5.933-.046a8.522,8.522,0,0,0-1.931.129c-.338.076-.733.273-1.085.076-2.255-1.276-5.186-.76-7.694-.631-7.046.311-14.176.144-21.265.205-3.65.038-7.286.068-10.921,0s-7.68,0-11.273-.851a13.775,13.775,0,0,0-2.818-.122,1.43,1.43,0,0,0-.822.137c-.212.119-.3.288-.221.448.141.76-.437.646-1.606.646-8.089,0-20.958-.646-30.126-.646-3.429-.147-6.8,0-6.8,0s-.991-50.676,0-58.458c-.457-6.535,18.98-.27,20.834,0a19.355,19.355,0,0,0,7.046-.532,30.392,30.392,0,0,1,6.835-.76c3.8-.106,7.483-.76,11.273-.646a2.15,2.15,0,0,0,1.846-.6,4.383,4.383,0,0,1,3.861-.813c1.663.243,3.213.38,4.368,1.314.86.691,2.959.349,4.481.365,4.96.053,9.864-.038,14.9,0,6.088.061,12.189.205,18.319.289a11.338,11.338,0,0,1,3,.684,4.345,4.345,0,0,0,1.86.228c2.212-.433,4.65-.532,6.637-1.322.733-.3,1.085-.509.282-.9-.409-.2-.888-.524-.352-.707a9.8,9.8,0,0,1,2.551-.456c.648-.038.733.334.719.638,0,.6.578.76,1.606.82,8.6.646,17.234.494,25.873.425a81.051,81.051,0,0,0,15.769-1.337c1.733-.365,3.664-.061,5.51-.106a3.073,3.073,0,0,0,2.114-.555,5.7,5.7,0,0,1,2.853-.838,6.715,6.715,0,0,1,3.094.534c2.593,1.231,5.228,2.454,7.948,3.609a6.545,6.545,0,0,0,3.34.463c3.847-.532,7.751-.091,11.612-.311.972-.053,1.945-.122,2.917-.137,5.89-.1,11.739.3,17.629.22a4.1,4.1,0,0,1,3.227,1.1,2.834,2.834,0,0,0,2.48.555q7.671-.9,15.5-1.307a34.288,34.288,0,0,1,6.75.4,63.7,63.7,0,0,0,10.414.76c8.61.046,17.22-.273,25.816.038,1.085.038,2.142-.281,2.818.532.2.258,1.212.137,1.874.076a118.921,118.921,0,0,1,15.952-.068c1.1.053,2.227.076,3.34.084,8.751.053,17.516.129,26.281.137a106.966,106.966,0,0,0,14.275-.486c4.594-.631,8.371.562,12.542.585,3.467,0,6.933-.258,10.259.509,7.567-.547,15.163-.114,22.744-.236,3.312-.053,6.623,0,9.864,0a4.327,4.327,0,0,1,3.467,1.056c1.409,1.557,6.947,1.519,8.638,0a1.55,1.55,0,0,1,1.409-.3,95.005,95.005,0,0,0,16.4,1.519c2.494,0,5.031.41,7.6.4a1.6,1.6,0,0,1,1.156.349c1.071,1.375,3.227,1.246,5.129.9a8.538,8.538,0,0,1,3.9.273,7.4,7.4,0,0,0,5.637-.3,12.673,12.673,0,0,1,7.37-1c1.477.14,2.969.229,4.467.266,1.874.167,3.607.547,5.425.76s3.044-.357,4.664-.258a10.519,10.519,0,0,1,3.2.593,24.287,24.287,0,0,0,7.567,1.838c1.311.053,1.409.5,1.339,1.048s-.268.9-1.494.82h-1.973c-.648,0-1.24.152-1.2.615s.2.684,1.043.76a16.015,16.015,0,0,0,5.2-.129c2.184-.547,4.228-.152,6.313,0,3.595.32,7.142.783,10.611,1.383,3.8.532,7.736,2.978,7.793,5.044,0,.623.3.828,1.409.76,2.565-.091,5.129-.046,7.694-.16,2.931-.129,6.3-.372,8.737.273s4.566-.1,6.778.122c.972.091,1.832,0,1.663.82s-.578.866-1.874.866a131.894,131.894,0,0,0-15.727.889c-1.616.151-3.25.238-4.89.258-.578,0-1.057.046-1.057.456s.592.494,1.226.463c6.595-.273,13.148.334,19.729.235,1.409,0,3.438-.19,4.552.76.409.357.676.615-.183.858-.391.084-.608.311-.507.532.155.334.7.236,1.141.266,3.185.213,6.37.41,9.54.646a23.312,23.312,0,0,1,7.243,1.535Z" transform="translate(-103.169 -374.334)" fill="#a6b9af"/>
</svg>
