<svg xmlns="http://www.w3.org/2000/svg" width="38.976" height="22.066" preserveAspectRatio="none" viewBox="0 0 38.976 22.066">
  <g id="Group_129" data-name="Group 129" transform="translate(-46.031 275.59)">
    <path id="Path_369" data-name="Path 369" d="M360.937,415.694c-.606.605-.679.872-1.043.993s-1.674.8-1.262,1.55l1.107.731.032.021.169.509-1.674,2.98s-2.759-1.262-3.03.6a23.884,23.884,0,0,0-.172,3.372c-.073,1,.024,1.285-.219,1.285s-.339-.655-.339-.655-.015-.03-.042-.086c-.361-.75-2.811-6.259,1.114-10.045a2.61,2.61,0,0,0,2.256-2.2c.3-1.441,1.358-1.317,2.06-1.023a2.329,2.329,0,0,1,.63.37,3.1,3.1,0,0,1,.451.537A.789.789,0,0,1,360.937,415.694Z" transform="translate(-307.348 -689.131)" fill="#d0d2d5"/>
    <path id="Path_370" data-name="Path 370" d="M370.809,484.418l.169.509-1.674,2.98s-2.759-1.262-3.03.6a23.893,23.893,0,0,0-.172,3.372c-.073,1,.024,1.285-.219,1.285s-.339-.655-.339-.655-.015-.03-.042-.086c-.122-.932-.74-6.384,1.5-6.094,0,0,1.817.849,2.108.51.23-.268,1.251-1.811,1.666-2.444Z" transform="translate(-318.825 -754.723)" opacity="0.1"/>
    <path id="Path_371" data-name="Path 371" d="M412.288,416.826l-1.107,1.258s-1.285,1.72-1.552,1.647a1.244,1.244,0,0,0-.243-.028.472.472,0,0,1-.307-.8,10.756,10.756,0,0,0,1.3-1.527,13.388,13.388,0,0,1,.825-1.46,2.328,2.328,0,0,1,.63.37A3.1,3.1,0,0,1,412.288,416.826Z" transform="translate(-359.1 -691.492)" opacity="0.1"/>
    <path id="Path_372" data-name="Path 372" d="M450.591,503.618c-.188.376-1.15,1.784-1.57,2.4l-.2.29s-.077.509-1.333-.122S416.72,493.1,416.72,493.1l-.2-.6,1.456-2.181,32.349,12.5A.634.634,0,0,1,450.591,503.618Z" transform="translate(-365.65 -760.025)" fill="#454b69"/>
    <path id="Path_373" data-name="Path 373" d="M449.021,532.287l-.2.29s-.077.509-1.333-.122-30.771-13.085-30.771-13.085l-.2-.6Z" transform="translate(-366.09 -786.459)" opacity="0.1"/>
  </g>
</svg>