<svg id="Layer_1" data-name="Layer 1" xmlns="http://www.w3.org/2000/svg" xmlns:xlink="http://www.w3.org/1999/xlink" height="30" width="15" viewBox="0 0 172.23 323.01"><defs><style>.cls-1{fill:none;}.cls-2{isolation:isolate;}.cls-3{clip-path:url(#clip-path);}.cls-4{fill:#004524;}.cls-5{fill:#004323;}.cls-6{fill:#004022;}.cls-7{clip-path:url(#clip-path-2);}.cls-8{clip-path:url(#clip-path-3);}.cls-9{fill:#00361d;}.cls-10{fill:#00381e;}.cls-11{clip-path:url(#clip-path-4);}.cls-12{clip-path:url(#clip-path-5);}.cls-13{clip-path:url(#clip-path-6);}.cls-14{clip-path:url(#clip-path-7);}.cls-15{fill:#003a1f;}.cls-16{fill:#003c20;}.cls-17{fill:#003e21;}.cls-18{clip-path:url(#clip-path-8);}.cls-19{clip-path:url(#clip-path-9);}.cls-20{clip-path:url(#clip-path-10);}.cls-21{clip-path:url(#clip-path-11);}.cls-22{fill:#005b30;}</style><clipPath id="clip-path" transform="translate(-6.74 0.4)"><path class="cls-1" d="M118.2,233.07l22.8,12.4a2.74,2.74,0,0,0-1.73-.21,14.67,14.67,0,0,0-1.71.39l-22.79-12.4a14.67,14.67,0,0,1,1.71-.39A2.77,2.77,0,0,1,118.2,233.07Z"/></clipPath><clipPath id="clip-path-2" transform="translate(-6.74 0.4)"><path class="cls-1" d="M136.41,245.47l-22.8-12.4a1.89,1.89,0,0,0,1.16.18l22.79,12.4A1.84,1.84,0,0,1,136.41,245.47Z"/></clipPath><clipPath id="clip-path-3" transform="translate(-6.74 0.4)"><path class="cls-1" d="M83.24,322.28l-22.79-12.4c-1.26-.68-1.78-2.32-1.23-4.19a157.69,157.69,0,0,1,5.21-14.91c2-4.9,1.36-8.76-1.82-10.49l22.79,12.4c3.18,1.73,3.84,5.59,1.83,10.49A152.25,152.25,0,0,0,82,318.09C81.47,320,82,321.6,83.24,322.28Z"/></clipPath><clipPath id="clip-path-4" transform="translate(-6.74 0.4)"><path class="cls-1" d="M148.66,119.41,125.87,107a8.79,8.79,0,0,0,5.29.85c5.8-.82,10.36.6,15.13,1.46a4.23,4.23,0,0,1,1.38.47l22.8,12.4a4.4,4.4,0,0,0-1.38-.47c-4.77-.86-9.33-2.28-15.13-1.46A8.81,8.81,0,0,1,148.66,119.41Z"/></clipPath><clipPath id="clip-path-5" transform="translate(-6.74 0.4)"><path class="cls-1" d="M64.88,292.54l-22.79-12.4a3.88,3.88,0,0,1-1.39-1.88,15.62,15.62,0,0,0-7.08-7.8l22.8,12.4a15.61,15.61,0,0,1,7.07,7.8A3.94,3.94,0,0,0,64.88,292.54Z"/></clipPath><clipPath id="clip-path-6" transform="translate(-6.74 0.4)"><path class="cls-1" d="M51.09,280.57,28.3,268.17c-3.28-1.78-5.87-5.33-8.84-7.9-3.33-2.9-6.24-6.32-10.17-8.46l22.79,12.4c3.93,2.14,6.84,5.56,10.17,8.46C45.22,275.24,47.82,278.79,51.09,280.57Z"/></clipPath><clipPath id="clip-path-7" transform="translate(-6.74 0.4)"><path class="cls-1" d="M31.6,264,8.81,251.56c-2.26-1.24-2.45-3.59-1.27-6.46,1.71-4.15,3.39-8.24,0-11.9-1.42-1.54-.6-4.25.19-6.45,3.56-10,9.43-18.47,16.15-26.41a5,5,0,0,1,3-1.87c4.69-.65,8.28-2.88,11.86-5.34s6.87-4.57,7.44-10c.44-4.3,5.11-6.08,7.65-9.22,5.72-7,13.73-10.53,19.92-16.81a3.91,3.91,0,0,1,1.22-.71c7.69-3.41,8-3.69,2.92-9.36-3.48-3.91-7.24-7.54-10.71-11.5-2.14-2.45-4.84-4.14-5.83-7.91a5.23,5.23,0,0,0-2.64-3.23l22.79,12.4A5.25,5.25,0,0,1,84.17,140c1,3.77,3.69,5.46,5.83,7.91,3.47,4,7.22,7.58,10.7,11.5,5,5.67,4.78,6-2.92,9.36a4,4,0,0,0-1.22.71c-6.19,6.28-14.2,9.78-19.91,16.81-2.55,3.14-7.22,4.92-7.66,9.22-.57,5.45-3.83,7.54-7.44,10s-7.16,4.69-11.86,5.34a5,5,0,0,0-3,1.87c-6.73,7.94-12.6,16.44-16.16,26.41-.79,2.2-1.61,4.91-.18,6.45,3.41,3.66,1.73,7.75,0,11.9C29.15,260.37,29.34,262.72,31.6,264Z"/></clipPath><clipPath id="clip-path-8" transform="translate(-6.74 0.4)"><path class="cls-1" d="M129.17,21.91,106.38,9.51c3.26,1.78,6.53,3.52,9.84,5.21,9.17,4.65,18.54,8.91,27.82,13.35,2.58,1.23,5.23,2.32,7.74,3.68l22.79,12.4c-2.51-1.36-5.16-2.45-7.73-3.68C157.55,36,148.18,31.77,139,27.11,135.71,25.43,132.43,23.68,129.17,21.91Z"/></clipPath><clipPath id="clip-path-9" transform="translate(-6.74 0.4)"><path class="cls-1" d="M76.17,135.45l-22.79-12.4c-1.49-.81-1.86-2.53-1.55-5a30.65,30.65,0,0,0,0-6.7c-.3-3-1.31-5.23-3.33-6.32l22.8,12.39c2,1.1,3,3.37,3.32,6.33a30,30,0,0,1,0,6.7C74.31,132.92,74.69,134.64,76.17,135.45Z"/></clipPath><clipPath id="clip-path-10" transform="translate(-6.74 0.4)"><path class="cls-1" d="M95.74,3.69l22.8,12.4q-2.61-1.42-5.24-2.81a9.52,9.52,0,0,0-5.76-1.2L84.75-.32A9.52,9.52,0,0,1,90.51.88Q93.14,2.26,95.74,3.69Z"/></clipPath><clipPath id="clip-path-11" transform="translate(-6.74 0.4)"><path class="cls-1" d="M64.53,116.16l-22.8-12.4c-1.22-.66-1.79-2.07-1.61-4.77.22-3.6-.26-7.17.07-10.9a17.47,17.47,0,0,1,5.88-12c5.76-5.28,6.69-12.36,2.53-17.79Q43.77,52,50.8,46.56a23.27,23.27,0,0,0,6.85-8.23c2.58-5.26,7.28-8.9,10-14.12.93-1.79,2.25-3.49,2.26-5.41.06-8,5.75-12.32,10.58-17A7.61,7.61,0,0,1,84.75-.32l22.79,12.4a7.62,7.62,0,0,0-4.27,2.15c-4.83,4.65-10.53,9-10.59,17,0,1.92-1.33,3.62-2.25,5.41-2.7,5.22-7.4,8.86-10,14.12A23.4,23.4,0,0,1,73.59,59q-7,5.46-2.2,11.76c4.17,5.43,3.23,12.51-2.53,17.79a17.47,17.47,0,0,0-5.88,12c-.33,3.73.15,7.3-.07,10.9C62.74,114.09,63.3,115.5,64.53,116.16Z"/></clipPath></defs><g class="cls-2"><g class="cls-2"><g class="cls-3"><g class="cls-2"><path class="cls-4" d="M137.56,245.65l-22.79-12.4a14.67,14.67,0,0,1,1.71-.39,3.16,3.16,0,0,1,1.27,0l22.79,12.4a3.16,3.16,0,0,0-1.27,0,14.67,14.67,0,0,0-1.71.39" transform="translate(-6.74 0.4)"/><path class="cls-5" d="M140.54,245.29l-22.79-12.4a2.46,2.46,0,0,1,.38.14l22.8,12.4a3,3,0,0,0-.39-.14" transform="translate(-6.74 0.4)"/><path class="cls-6" d="M140.93,245.43,118.13,233l.07,0,22.8,12.4-.07,0" transform="translate(-6.74 0.4)"/></g></g></g><g class="cls-2"><g class="cls-7"><g class="cls-2"><path class="cls-6" d="M136.41,245.47l-22.8-12.4.06,0,22.8,12.4-.06,0" transform="translate(-6.74 0.4)"/><path class="cls-5" d="M136.47,245.5l-22.8-12.4a1.52,1.52,0,0,0,.32.12l22.79,12.4a1.43,1.43,0,0,1-.31-.12" transform="translate(-6.74 0.4)"/><path class="cls-4" d="M136.78,245.62,114,233.22a2,2,0,0,0,.78,0l22.79,12.4a2,2,0,0,1-.78,0" transform="translate(-6.74 0.4)"/></g></g></g><g class="cls-2"><g class="cls-8"><g class="cls-2"><path class="cls-9" d="M83.24,322.28l-22.79-12.4c-1.26-.68-1.78-2.32-1.23-4.19,1-3.35,2.09-6.69,3.3-10l22.79,12.4c-1.21,3.3-2.3,6.64-3.29,10-.55,1.87,0,3.51,1.22,4.19" transform="translate(-6.74 0.4)"/><path class="cls-10" d="M85.31,308.1,62.52,295.7c.61-1.65,1.24-3.29,1.91-4.92.1-.22.19-.45.27-.68l22.79,12.4c-.08.23-.17.45-.26.68q-1,2.44-1.92,4.92" transform="translate(-6.74 0.4)"/><path class="cls-9" d="M87.49,302.5,64.7,290.1c1.68-4.57.94-8.16-2.09-9.81l22.79,12.4c3,1.64,3.77,5.23,2.09,9.81" transform="translate(-6.74 0.4)"/></g></g></g><g class="cls-2"><g class="cls-11"><g class="cls-2"><path class="cls-6" d="M148.66,119.41,125.87,107l.25.13,22.79,12.4-.25-.13" transform="translate(-6.74 0.4)"/><path class="cls-5" d="M148.91,119.54l-22.79-12.4a8.31,8.31,0,0,0,1.45.53l22.79,12.4a8.31,8.31,0,0,1-1.45-.53" transform="translate(-6.74 0.4)"/><path class="cls-4" d="M150.36,120.07l-22.79-12.4a9.37,9.37,0,0,0,3.59.19c5.8-.82,10.36.6,15.13,1.46l.39.08,22.8,12.4-.39-.08c-4.77-.86-9.33-2.28-15.13-1.46a9.42,9.42,0,0,1-3.6-.19" transform="translate(-6.74 0.4)"/><path class="cls-5" d="M169.48,121.8l-22.8-12.4a5,5,0,0,1,.85.31l22.79,12.4a5.21,5.21,0,0,0-.84-.31" transform="translate(-6.74 0.4)"/><path class="cls-6" d="M170.32,122.11l-22.79-12.4.14.08,22.8,12.4-.15-.08" transform="translate(-6.74 0.4)"/></g></g></g><g class="cls-2"><g class="cls-12"><g class="cls-2"><path class="cls-9" d="M64.88,292.54l-22.79-12.4a3.88,3.88,0,0,1-1.39-1.88,15.62,15.62,0,0,0-7.08-7.8l22.8,12.4a15.61,15.61,0,0,1,7.07,7.8,3.94,3.94,0,0,0,1.39,1.88" transform="translate(-6.74 0.4)"/></g></g></g><g class="cls-2"><g class="cls-13"><g class="cls-2"><path class="cls-9" d="M51.09,280.57,28.3,268.17c-3.28-1.78-5.87-5.33-8.84-7.9-3.33-2.9-6.24-6.32-10.17-8.46l22.79,12.4c3.93,2.14,6.84,5.56,10.17,8.46,3,2.57,5.57,6.12,8.84,7.9" transform="translate(-6.74 0.4)"/></g></g></g><g class="cls-2"><g class="cls-14"><g class="cls-2"><path class="cls-9" d="M31.6,264,8.81,251.56c-2.14-1.17-2.43-3.34-1.45-6L30.15,258c-1,2.66-.69,4.83,1.45,6" transform="translate(-6.74 0.4)"/><path class="cls-10" d="M30.15,258,7.36,245.56l.18-.46c.32-.79.65-1.57.94-2.35l22.79,12.4c-.29.78-.61,1.56-.94,2.35l-.18.46" transform="translate(-6.74 0.4)"/><path class="cls-9" d="M31.27,255.15,8.48,242.75c1.22-3.34,1.8-6.59-1-9.55-1.42-1.54-.6-4.25.19-6.45.07-.19.13-.37.2-.55l22.79,12.39c-.06.19-.13.37-.2.56-.79,2.2-1.61,4.91-.18,6.45,2.76,3,2.19,6.21,1,9.55" transform="translate(-6.74 0.4)"/><path class="cls-10" d="M30.69,238.59,7.9,226.2a67.71,67.71,0,0,1,3.93-8.7l22.8,12.4a68.25,68.25,0,0,0-3.94,8.69" transform="translate(-6.74 0.4)"/><path class="cls-15" d="M34.63,229.9l-22.8-12.4a82.55,82.55,0,0,1,5.23-8.41l22.79,12.4a82.46,82.46,0,0,0-5.22,8.41" transform="translate(-6.74 0.4)"/><path class="cls-16" d="M39.85,221.49l-22.79-12.4c2.11-3,4.4-5.92,6.79-8.75l.09-.1,22.8,12.4-.09.1c-2.4,2.83-4.69,5.73-6.8,8.75" transform="translate(-6.74 0.4)"/><path class="cls-17" d="M46.74,212.64l-22.8-12.4c.19-.21.39-.41.59-.6L47.33,212a8.35,8.35,0,0,0-.59.6" transform="translate(-6.74 0.4)"/><path class="cls-6" d="M47.33,212l-22.8-12.4a6.26,6.26,0,0,1,.57-.45l22.79,12.4c-.19.14-.38.29-.56.45" transform="translate(-6.74 0.4)"/><path class="cls-5" d="M47.89,211.59,25.1,199.19a6.11,6.11,0,0,1,.65-.38l22.8,12.4a5.38,5.38,0,0,0-.66.38" transform="translate(-6.74 0.4)"/><path class="cls-4" d="M48.55,211.21l-22.8-12.4a4.37,4.37,0,0,1,1.15-.34,20.48,20.48,0,0,0,6-1.82l22.79,12.4a20.39,20.39,0,0,1-6,1.82,4.06,4.06,0,0,0-1.14.34" transform="translate(-6.74 0.4)"/><path class="cls-5" d="M55.69,209.05,32.9,196.65a43.73,43.73,0,0,0,5.86-3.52l1-.65,22.8,12.39-1,.66a43.73,43.73,0,0,1-5.86,3.52" transform="translate(-6.74 0.4)"/><path class="cls-6" d="M62.51,204.87l-22.8-12.39a28.83,28.83,0,0,0,2.83-2.16l22.79,12.39a26.89,26.89,0,0,1-2.82,2.16" transform="translate(-6.74 0.4)"/><path class="cls-17" d="M65.33,202.71,42.54,190.32c.38-.35.74-.7,1.08-1.08l22.79,12.4a13.63,13.63,0,0,1-1.08,1.07" transform="translate(-6.74 0.4)"/><path class="cls-16" d="M66.41,201.64l-22.79-12.4a11.33,11.33,0,0,0,.74-.94l22.79,12.4a11.33,11.33,0,0,1-.74.94" transform="translate(-6.74 0.4)"/><path class="cls-15" d="M67.15,200.7,44.36,188.3a9.7,9.7,0,0,0,.61-1l22.79,12.4a9.7,9.7,0,0,1-.61,1" transform="translate(-6.74 0.4)"/><path class="cls-10" d="M67.76,199.71,45,187.31a10.74,10.74,0,0,0,.57-1.28l22.8,12.4a10,10,0,0,1-.58,1.28" transform="translate(-6.74 0.4)"/><path class="cls-9" d="M68.34,198.43,45.54,186a12.07,12.07,0,0,0,.66-2.92,5.58,5.58,0,0,1,.33-1.45l22.79,12.4a6,6,0,0,0-.33,1.45,12.08,12.08,0,0,1-.65,2.92" transform="translate(-6.74 0.4)"/><path class="cls-10" d="M69.32,194.06l-22.79-12.4a6.17,6.17,0,0,1,.37-.83l22.79,12.4a7.75,7.75,0,0,0-.37.83" transform="translate(-6.74 0.4)"/><path class="cls-15" d="M69.69,193.23,46.9,180.83a6.89,6.89,0,0,1,.46-.73l22.79,12.4a6.89,6.89,0,0,0-.46.73" transform="translate(-6.74 0.4)"/><path class="cls-16" d="M70.15,192.5,47.36,180.1a6.92,6.92,0,0,1,.63-.8l22.8,12.4a7,7,0,0,0-.64.8" transform="translate(-6.74 0.4)"/><path class="cls-17" d="M70.79,191.7,48,179.3a14.6,14.6,0,0,1,1.18-1.18L72,190.52a14.6,14.6,0,0,0-1.18,1.18" transform="translate(-6.74 0.4)"/><path class="cls-6" d="M72,190.52l-22.8-12.4c1-.91,2.15-1.76,3.17-2.68l22.8,12.4c-1,.92-2.16,1.77-3.17,2.68" transform="translate(-6.74 0.4)"/><path class="cls-17" d="M75.14,187.84l-22.8-12.4a14.07,14.07,0,0,0,1.23-1.21l22.79,12.4a15.48,15.48,0,0,1-1.22,1.21" transform="translate(-6.74 0.4)"/><path class="cls-16" d="M76.36,186.63l-22.79-12.4.28-.34c.28-.34.55-.66.83-1l22.8,12.4c-.28.32-.56.64-.83,1l-.29.34" transform="translate(-6.74 0.4)"/><path class="cls-17" d="M77.48,185.31l-22.8-12.4a38.23,38.23,0,0,1,3-3l22.8,12.4a35,35,0,0,0-3,3" transform="translate(-6.74 0.4)"/><path class="cls-6" d="M80.46,182.32l-22.8-12.4c4.57-4.1,9.84-7.11,14.41-11.22l22.79,12.4c-4.56,4.11-9.84,7.11-14.4,11.22" transform="translate(-6.74 0.4)"/><path class="cls-17" d="M94.86,171.1,72.07,158.7c.58-.52,1.15-1.06,1.7-1.62l.07-.07,22.79,12.4-.07.07c-.55.56-1.12,1.1-1.7,1.62" transform="translate(-6.74 0.4)"/><path class="cls-6" d="M96.63,169.41,73.84,157a1.56,1.56,0,0,1,.2-.16l22.8,12.4-.21.16" transform="translate(-6.74 0.4)"/><path class="cls-5" d="M96.84,169.25,74,156.85a4.35,4.35,0,0,1,.52-.29L97.35,169a4.21,4.21,0,0,0-.51.29" transform="translate(-6.74 0.4)"/><path class="cls-4" d="M97.35,169l-22.79-12.4.43-.19c1-.42,1.8-.8,2.54-1.15l22.79,12.4c-.73.35-1.58.72-2.54,1.15l-.43.19" transform="translate(-6.74 0.4)"/><path class="cls-5" d="M100.32,167.62l-22.79-12.4a17.37,17.37,0,0,0,2.5-1.35l22.8,12.4a18.14,18.14,0,0,1-2.51,1.35" transform="translate(-6.74 0.4)"/><path class="cls-6" d="M102.83,166.27,80,153.87a4.7,4.7,0,0,0,.52-.4l22.8,12.4a5.88,5.88,0,0,1-.52.4" transform="translate(-6.74 0.4)"/><path class="cls-17" d="M103.35,165.87l-22.8-12.4.28-.27,22.79,12.4a3.44,3.44,0,0,1-.27.27" transform="translate(-6.74 0.4)"/><path class="cls-16" d="M103.62,165.6,80.83,153.2,81,153l22.79,12.4-.16.21" transform="translate(-6.74 0.4)"/><path class="cls-15" d="M103.78,165.39,81,153a1.37,1.37,0,0,0,.13-.2l22.79,12.4a1.37,1.37,0,0,1-.13.2" transform="translate(-6.74 0.4)"/><path class="cls-10" d="M103.91,165.19l-22.79-12.4.09-.21L104,165a1,1,0,0,1-.09.21" transform="translate(-6.74 0.4)"/><path class="cls-9" d="M104,165l-22.79-12.4c.44-1.21-.75-2.71-3.3-5.57-3.48-3.91-7.24-7.54-10.71-11.5-2.14-2.45-4.84-4.14-5.83-7.91a5.23,5.23,0,0,0-2.64-3.23l22.79,12.4A5.25,5.25,0,0,1,84.17,140c1,3.77,3.69,5.46,5.83,7.91,3.47,4,7.22,7.58,10.7,11.5,2.55,2.86,3.74,4.35,3.3,5.57" transform="translate(-6.74 0.4)"/></g></g></g><g class="cls-2"><g class="cls-18"><g class="cls-2"><path class="cls-6" d="M129.17,21.91,106.38,9.51c3.26,1.78,6.53,3.52,9.84,5.21q2.28,1.15,4.58,2.28l22.8,12.4c-1.54-.75-3.06-1.51-4.58-2.29-3.31-1.68-6.59-3.43-9.85-5.2" transform="translate(-6.74 0.4)"/><path class="cls-5" d="M143.6,29.4,120.8,17c7.7,3.79,15.5,7.37,23.24,11.07,2,.95,4,1.82,6,2.79l22.8,12.4c-2-1-4-1.84-6-2.79-7.74-3.7-15.55-7.28-23.24-11.07" transform="translate(-6.74 0.4)"/><path class="cls-6" d="M172.86,43.26l-22.8-12.4c.58.29,1.15.58,1.72.89l22.79,12.4c-.57-.31-1.14-.6-1.71-.89" transform="translate(-6.74 0.4)"/></g></g></g><g class="cls-2"><g class="cls-19"><g class="cls-2"><path class="cls-9" d="M76.17,135.45l-22.79-12.4c-1.49-.81-1.86-2.53-1.55-5a30.65,30.65,0,0,0,0-6.7c-.3-3-1.31-5.23-3.33-6.32l22.8,12.39c2,1.1,3,3.37,3.32,6.33a30,30,0,0,1,0,6.7c-.31,2.51.07,4.23,1.55,5" transform="translate(-6.74 0.4)"/></g></g></g><g class="cls-2"><g class="cls-20"><g class="cls-2"><path class="cls-4" d="M107.54,12.08,84.75-.32A8.28,8.28,0,0,1,88-.1l22.79,12.4a8.28,8.28,0,0,0-3.28-.22" transform="translate(-6.74 0.4)"/><path class="cls-5" d="M110.82,12.3,88-.1a11.68,11.68,0,0,1,2.15.81L113,13.11a11,11,0,0,0-2.15-.81" transform="translate(-6.74 0.4)"/><path class="cls-6" d="M113,13.11,90.18.71l.33.17q2.63,1.38,5.23,2.81l22.8,12.4q-2.61-1.42-5.24-2.81l-.33-.17" transform="translate(-6.74 0.4)"/></g></g></g><g class="cls-2"><g class="cls-21"><g class="cls-2"><path class="cls-9" d="M64.53,116.16l-22.8-12.4c-1.22-.66-1.79-2.07-1.61-4.77.22-3.6-.26-7.17.07-10.9a19.79,19.79,0,0,1,1.08-5l22.8,12.4a19.7,19.7,0,0,0-1.09,5c-.33,3.73.15,7.3-.07,10.9-.17,2.7.39,4.11,1.62,4.77" transform="translate(-6.74 0.4)"/><path class="cls-10" d="M64.07,95.47l-22.8-12.4a16.31,16.31,0,0,1,1-2.13L65,93.34a15.73,15.73,0,0,0-1,2.13" transform="translate(-6.74 0.4)"/><path class="cls-15" d="M65,93.34l-22.8-12.4a15.42,15.42,0,0,1,1-1.67l22.79,12.4a15.32,15.32,0,0,0-1,1.67" transform="translate(-6.74 0.4)"/><path class="cls-16" d="M66.06,91.67,43.27,79.27a16.76,16.76,0,0,1,1.25-1.59l22.79,12.4a18.55,18.55,0,0,0-1.25,1.59" transform="translate(-6.74 0.4)"/><path class="cls-17" d="M67.31,90.08,44.52,77.68a19.07,19.07,0,0,1,1.55-1.57,18.55,18.55,0,0,0,1.39-1.42l22.79,12.4a16.85,16.85,0,0,1-1.39,1.42,20.81,20.81,0,0,0-1.55,1.57" transform="translate(-6.74 0.4)"/><path class="cls-16" d="M70.25,87.09,47.46,74.69a16.4,16.4,0,0,0,1.18-1.49L71.43,85.6a14.82,14.82,0,0,1-1.18,1.49" transform="translate(-6.74 0.4)"/><path class="cls-15" d="M71.43,85.6,48.64,73.2a15.59,15.59,0,0,0,1-1.54l22.8,12.4a15.7,15.7,0,0,1-1,1.54" transform="translate(-6.74 0.4)"/><path class="cls-10" d="M72.39,84.06l-22.8-12.4a13.08,13.08,0,0,0,.81-1.8l22.8,12.4a16,16,0,0,1-.81,1.8" transform="translate(-6.74 0.4)"/><path class="cls-9" d="M73.2,82.26,50.4,69.86a11.81,11.81,0,0,0-1.8-11.54c-1.89-2.46-2.42-4.82-1.59-7.1l22.8,12.4c-.83,2.28-.31,4.64,1.58,7.1A11.83,11.83,0,0,1,73.2,82.26" transform="translate(-6.74 0.4)"/><path class="cls-10" d="M69.81,63.62,47,51.22a8.63,8.63,0,0,1,.43-.94l22.79,12.4a6.46,6.46,0,0,0-.42.94" transform="translate(-6.74 0.4)"/><path class="cls-15" d="M70.23,62.68,47.44,50.28a7.22,7.22,0,0,1,.54-.86l22.79,12.4a8.78,8.78,0,0,0-.54.86" transform="translate(-6.74 0.4)"/><path class="cls-16" d="M70.77,61.82,48,49.42a9,9,0,0,1,.74-.94l22.79,12.4a10.5,10.5,0,0,0-.74.94" transform="translate(-6.74 0.4)"/><path class="cls-17" d="M71.51,60.88,48.72,48.48a14.59,14.59,0,0,1,1.11-1.12l22.8,12.4a14.78,14.78,0,0,0-1.12,1.12" transform="translate(-6.74 0.4)"/><path class="cls-6" d="M72.63,59.76l-22.8-12.4c.3-.27.63-.54,1-.8.54-.43,1.07-.86,1.57-1.32l22.79,12.4c-.5.46-1,.89-1.57,1.32-.34.26-.66.53-1,.8" transform="translate(-6.74 0.4)"/><path class="cls-17" d="M75.16,57.64,52.37,45.24a25.54,25.54,0,0,0,2-2l22.8,12.4a25.67,25.67,0,0,1-2,2" transform="translate(-6.74 0.4)"/><path class="cls-16" d="M77.18,55.62l-22.8-12.4a22.61,22.61,0,0,0,1.55-2l22.79,12.4c-.48.68-1,1.33-1.54,2" transform="translate(-6.74 0.4)"/><path class="cls-15" d="M78.72,53.66,55.93,41.26a20.63,20.63,0,0,0,1.33-2.17l22.8,12.4a22.52,22.52,0,0,1-1.34,2.17" transform="translate(-6.74 0.4)"/><path class="cls-10" d="M80.06,51.49l-22.8-12.4c.14-.25.27-.5.39-.76l.36-.68L80.8,50.05c-.12.22-.24.45-.35.68l-.39.76" transform="translate(-6.74 0.4)"/><path class="cls-15" d="M80.8,50.05,58,37.65a24.64,24.64,0,0,1,1.58-2.55L82.38,47.5a26.48,26.48,0,0,0-1.58,2.55" transform="translate(-6.74 0.4)"/><path class="cls-16" d="M82.38,47.5,59.59,35.1c1.95-2.77,4.32-5.22,6.28-8l22.79,12.4c-2,2.79-4.33,5.24-6.28,8" transform="translate(-6.74 0.4)"/><path class="cls-15" d="M88.66,39.49,65.87,27.09a27.74,27.74,0,0,0,1.6-2.57l22.79,12.4a24,24,0,0,1-1.6,2.57" transform="translate(-6.74 0.4)"/><path class="cls-10" d="M90.26,36.92,67.47,24.52l.16-.31c.05-.09.1-.18.14-.27l22.8,12.4c0,.09-.1.18-.14.27l-.17.31" transform="translate(-6.74 0.4)"/><path class="cls-15" d="M90.57,36.34l-22.8-12.4c.36-.66.76-1.32,1.12-2l22.79,12.4c-.35.66-.76,1.32-1.11,2" transform="translate(-6.74 0.4)"/><path class="cls-10" d="M91.68,34.36,68.89,22a10.36,10.36,0,0,0,.65-1.4L92.33,33a10.36,10.36,0,0,1-.65,1.4" transform="translate(-6.74 0.4)"/><path class="cls-9" d="M92.33,33,69.54,20.56a5.35,5.35,0,0,0,.35-1.76,15.06,15.06,0,0,1,.91-5.13l22.79,12.4a15.31,15.31,0,0,0-.91,5.13A5.11,5.11,0,0,1,92.33,33" transform="translate(-6.74 0.4)"/><path class="cls-10" d="M93.59,26.07,70.8,13.67a15.53,15.53,0,0,1,.92-2L94.51,24a15.53,15.53,0,0,0-.92,2" transform="translate(-6.74 0.4)"/><path class="cls-15" d="M94.51,24,71.72,11.64a16,16,0,0,1,1.15-1.86l22.79,12.4A17.52,17.52,0,0,0,94.51,24" transform="translate(-6.74 0.4)"/><path class="cls-16" d="M95.66,22.18,72.87,9.78A24,24,0,0,1,74.6,7.6L97.39,20c-.61.7-1.19,1.42-1.73,2.18" transform="translate(-6.74 0.4)"/><path class="cls-17" d="M97.39,20,74.6,7.6c1.81-2,3.91-3.88,5.87-5.77l.22-.21L103.49,14l-.22.21c-2,1.88-4.06,3.72-5.88,5.77" transform="translate(-6.74 0.4)"/><path class="cls-6" d="M103.49,14,80.69,1.62a10.32,10.32,0,0,1,.87-.68l22.8,12.4a7.87,7.87,0,0,0-.87.68" transform="translate(-6.74 0.4)"/><path class="cls-5" d="M104.36,13.34,81.56.94A8.25,8.25,0,0,1,82.66.3l22.8,12.4a6.83,6.83,0,0,0-1.1.64" transform="translate(-6.74 0.4)"/><path class="cls-4" d="M105.46,12.7,82.66.3a7.35,7.35,0,0,1,2.09-.62l22.79,12.4a7.29,7.29,0,0,0-2.08.62" transform="translate(-6.74 0.4)"/></g></g></g><path class="cls-22" d="M107.54,12.08a9.52,9.52,0,0,1,5.76,1.2c8.6,4.54,17,9.43,25.72,13.83,9.16,4.66,18.53,8.92,27.82,13.36,2.79,1.33,5.68,2.5,8.37,4,3.4,1.94,4.5,4.75,3.27,9.73-2.41,9.72-6.56,18.85-9.88,28.26a25.41,25.41,0,0,1-4.39,7.74,4.48,4.48,0,0,1-2.58,1.87,2.52,2.52,0,0,1-.94,0,5.84,5.84,0,0,0-2.13-.12c-2.75.39-4.23,3.06-5.26,5.92-1.89,5.28-3.5,10.61-6.29,15.58-2.6,4.63,2.35,7.48,7,6.83,5.8-.82,10.36.6,15.13,1.46,3.3.59,4,3.73,3.19,7.75,2.8,12.34-4.62,25-4.89,37.69a5.61,5.61,0,0,1-1.21,3.17c-3.23,3.79-4.64,8-5.28,12.85-.87,6.54-1.8,13.14-5.12,19.37a9.47,9.47,0,0,0-.49,7.06c1.86,5.9,1.25,8.15-3.51,13q-3.1,3.14-6.05,6.46c-1,1.1-2.33,2.41-2.47,3.63-.41,3.48-1.06,6.18-4.11,6.61a7.78,7.78,0,0,1-2,0c-1.45.16-2.32,1.86-2.1,3.33s.81,3.29,2.55,3.05a14.67,14.67,0,0,1,1.71-.39,2.27,2.27,0,0,1,2.78,1.52c.77,1.94-.37,3.69-1.48,5.4-2.79,4.29-6.77,7.5-9.36,12a4.88,4.88,0,0,1-2.91,2.43,9.7,9.7,0,0,0-2.54-.06c-3.69.52-5.7,4.44-8.57,6.74-2.38,1.91.34,3.68-1.22,5.71-2.27,2.95-3.91,6.46-5.83,9.73a10.37,10.37,0,0,0-1.52,2.53c-1.77,8.35-6.89,15.18-10.8,22.49-2.69,5-7.76,7.39-12.54,8.83-2.64.41-4-1.79-3.26-4.48a152.25,152.25,0,0,1,5.21-14.91c2.63-6.42.68-11.06-5.49-11.45-3.59-.22-7.1-1.5-10.78-1a11.43,11.43,0,0,0-4.51,1.66,1.83,1.83,0,0,1-.74.29c-1.06.15-1.74-.95-2.22-2-2.19-5-5.7-7.7-10.82-9.4-4.06-1.35-7-5.62-10.42-8.59S35.83,266.13,31.7,264c-2.36-1.22-2.57-3.6-1.37-6.51,1.71-4.15,3.39-8.24,0-11.9-1.43-1.54-.61-4.25.18-6.45,3.56-10,9.43-18.47,16.16-26.41a5,5,0,0,1,3-1.87c4.7-.65,8.28-2.88,11.86-5.34s6.87-4.57,7.44-10c.44-4.3,5.11-6.08,7.66-9.22,5.71-7,13.72-10.53,19.91-16.81a4,4,0,0,1,1.22-.71c7.7-3.41,8-3.69,2.92-9.36-3.48-3.92-7.23-7.55-10.7-11.5-2.14-2.45-4.85-4.14-5.83-7.91a5.86,5.86,0,0,0-5.67-4c-3.41-.08-4.31-2.05-3.88-5.56a30,30,0,0,0,0-6.7c-.43-4.34-2.41-7.2-6.8-7-3.45.12-5.23-.77-4.94-5.28.22-3.6-.26-7.17.07-10.9a17.47,17.47,0,0,1,5.88-12c5.76-5.28,6.7-12.36,2.53-17.79Q66.56,64.44,73.59,59a23.4,23.4,0,0,0,6.86-8.23c2.58-5.26,7.28-8.9,10-14.12.92-1.79,2.24-3.49,2.25-5.41.06-8,5.76-12.32,10.59-17A7.62,7.62,0,0,1,107.54,12.08Z" transform="translate(-6.74 0.4)"/></g></svg>