<svg width="100%" height="100%" viewBox="0 0 22 41" fill="none" xmlns="http://www.w3.org/2000/svg">
<g id="local_svg">
<path id="Vector" d="M4.55112 0.731455C3.39335 1.85554 3.1749 2.2894 3.1749 3.41348C3.1749 4.2812 3.04384 4.69533 2.41034 5.62221C1.49286 6.98295 1.36179 8.28452 2.08267 8.87614C2.34481 9.09307 2.51956 9.48749 2.51956 9.86218C2.51956 10.3749 2.3885 10.5327 1.755 10.8088C1.3181 10.9863 0.924899 11.2821 0.83752 11.4596C0.640918 11.9131 1.38364 14.6149 1.77684 14.9107C1.9516 15.0487 2.47587 15.2065 2.91277 15.2657C3.6118 15.3643 3.78656 15.5023 4.20161 16.2912C4.59481 17.0208 5.05355 17.4152 6.86666 18.5393C8.08997 19.2887 9.07298 19.9395 9.07298 19.9789C9.07298 20.0184 8.41764 20.6889 7.63123 21.458C6.84482 22.2468 5.77443 23.5287 5.25015 24.3372C4.4419 25.5797 4.09238 25.8952 2.91277 26.546L1.51471 27.2954L1.14335 28.735C0.662763 30.569 0.662763 30.6873 1.29626 31.8114C2.49772 33.9018 6.77928 36.3275 10.1215 36.8402C11.3885 37.0177 11.4977 37.0769 11.3448 37.4516C11.2575 37.6882 11.1701 38.4376 11.1701 39.1278C11.1701 40.1336 11.2575 40.4294 11.5851 40.6463C12.306 41.1196 12.8303 40.9619 13.9007 39.9167C14.84 38.9898 14.9711 38.7531 15.1895 37.491C15.539 35.5584 15.6919 35.164 16.806 33.6652C18.7283 31.0226 20.2138 28.0053 20.8036 25.5599C21.2186 23.7653 21.2842 23.154 21.1094 22.6807C20.9783 22.3454 20.8254 20.5311 20.7599 18.6379C20.6288 15.2854 20.607 15.1474 19.9298 13.8458C19.2526 12.5048 19.2308 12.485 18.4662 12.5837C18.0512 12.6231 17.505 12.7217 17.2647 12.8203C16.9589 12.9386 17.0463 12.7611 17.5924 12.2484L18.3351 11.5384L18.3788 7.92954C18.4007 5.95746 18.3351 4.20231 18.2259 4.02483C17.9638 3.55153 16.5876 3.09795 12.874 2.26968C11.039 1.85554 8.789 1.18503 7.87152 0.810339C6.9322 0.415923 5.94918 0.10039 5.70889 0.10039C5.44676 0.10039 4.92248 0.396202 4.55112 0.731455ZM7.43462 2.09219C8.24288 2.40772 10.2307 2.99935 11.8691 3.37404C13.5293 3.74874 15.3206 4.18259 15.8885 4.36008L16.8934 4.65589L16.8715 7.7915L16.8279 10.9271L15.6919 11.9723C14.5342 13.0175 14.2939 13.6091 14.7963 14.0627C15.1021 14.3388 16.5439 14.3782 17.5487 14.1219C18.2259 13.9444 18.2696 13.9641 18.7065 14.7135C19.0779 15.4037 19.1652 15.9953 19.2526 18.9929C19.3182 20.9058 19.4711 22.661 19.5803 22.8779C19.7332 23.154 19.6458 23.8639 19.3618 25.1852C18.8594 27.3151 17.09 30.7859 15.1895 33.3299C14.272 34.5526 14.1191 34.9076 13.8788 36.4261C13.6822 37.6291 13.4419 38.2996 13.0924 38.694C12.4808 39.3842 12.1531 39.1476 12.5463 38.2996C13.3109 36.6825 12.7647 35.9331 10.5584 35.5978C7.47831 35.1245 3.76471 33.113 2.54141 31.2592C2.08267 30.5296 2.06082 30.4112 2.30112 29.4449C2.62879 28.1631 2.73801 28.0447 4.15792 27.3151C5.09724 26.8221 5.4686 26.4671 6.2987 25.1655C6.84482 24.3175 8.04628 22.9173 8.94191 22.0693C11.3448 19.8015 11.3011 19.7029 7.43462 17.3166C6.34239 16.6461 5.77443 16.1334 5.42491 15.522C4.74772 14.3191 4.50743 14.1022 3.8084 14.1022C3.02199 14.1022 2.5851 13.688 2.3885 12.7809C2.25743 12.1892 2.32296 12.0117 2.62879 11.8343C4.09238 11.0849 4.46374 9.07335 3.30597 8.20564C2.7817 7.81122 2.86908 7.4168 3.83025 6.01663C4.57297 4.91226 4.70404 4.57701 4.70404 3.63041C4.70404 2.80214 4.81326 2.388 5.16277 1.99359C5.40307 1.71749 5.68705 1.48085 5.77443 1.48085C5.88365 1.48085 6.62637 1.75694 7.43462 2.09219Z" fill="black"/>
</g>
</svg>
