<svg width="100%" height="100%" viewBox="0 0 146 146" fill="none" preserveAspectRatio="none" xmlns="http://www.w3.org/2000/svg">
<path d="M69.8786 1.29799C68.7756 2.20635 67.6726 4.21772 66.7643 7.07256L65.3368 11.5495L59.8218 11.809C54.8258 12.0037 54.2419 12.1334 52.8145 13.8204C51.0626 15.8966 50.8031 18.5568 52.1656 20.5033C52.6847 21.2819 54.7609 22.9689 56.7074 24.3314C58.7188 25.6939 60.3409 26.8618 60.3409 26.9267C60.3409 26.9916 59.7569 28.7434 58.9783 30.8846C57.0967 36.2698 57.2265 38.8651 59.3676 40.6819C61.9629 42.9528 64.1689 42.5635 68.7107 39.2544C70.9168 37.6324 72.7984 36.3347 72.993 36.3347C73.1877 36.3347 75.0693 37.6324 77.2753 39.2544C81.8171 42.5635 84.0231 42.9528 86.6184 40.6819C88.7595 38.8651 88.8893 36.2698 87.0077 30.8846C86.2291 28.7434 85.6452 26.9916 85.6452 26.9267C85.6452 26.8618 87.2672 25.6939 89.2786 24.3314C91.2251 22.9689 93.3013 21.2819 93.8204 20.5033C95.1829 18.5568 94.9234 15.8966 93.1716 13.8204C91.7441 12.1334 91.1602 12.0037 86.1642 11.809L80.6492 11.5495L79.2218 7.07256C77.7295 2.401 75.5883 0.000333845 72.993 0.000333845C72.2144 0.000333845 70.787 0.584279 69.8786 1.29799ZM74.9395 11.6792C76.886 17.5187 76.6913 17.3889 84.0231 17.6485L88.5649 17.8431L84.1529 21.0224C79.2218 24.6558 79.092 25.0451 81.1034 30.8197C81.8171 32.9608 82.3361 34.9073 82.2064 35.2317C82.1415 35.5561 80.195 34.4531 77.989 32.831C75.783 31.209 73.5121 29.8464 72.993 29.8464C72.4739 29.8464 70.2031 31.209 67.997 32.831C65.791 34.4531 63.8445 35.5561 63.7797 35.2317C63.6499 34.9073 64.1689 32.9608 64.8827 30.8197C66.894 25.0451 66.7643 24.6558 61.8332 21.0224L57.4211 17.8431L61.9629 17.6485C69.2947 17.3889 69.1 17.5187 71.0465 11.6792C72.0198 8.8244 72.8632 6.48862 72.993 6.48862C73.1228 6.48862 73.9663 8.8244 74.9395 11.6792Z" fill="black"/>
<path d="M67.4782 49.2462C61.1846 51.3225 56.1237 56.0589 53.9177 61.8984C52.7498 65.0776 52.5552 66.9592 52.5552 75.1994C52.5552 85.9699 53.3338 89.6682 56.4481 93.9505C57.4863 95.4428 58.3946 96.8053 58.3946 97C58.3946 97.1946 54.8909 97.3244 50.6087 97.3244C46.3264 97.3244 42.8227 97.1946 42.8227 97.0649C42.8227 96.9351 43.4067 95.5726 44.1204 94.0154C45.0288 91.8742 45.4181 89.7331 45.4181 85.5806C45.4181 80.7793 45.1585 79.5465 43.6662 76.497C37.9565 65.3372 21.3465 66.7646 17.5184 78.7679C16.3506 82.3365 16.9345 92.7177 18.3619 94.9237C19.8542 97.1946 19.7893 97.3244 17.6482 97.3244C11.9385 97.3244 5.19071 102.061 2.14122 108.225C0.519145 111.599 0.324497 112.702 0.129848 120.098C-0.0648004 127.041 0.0649652 128.403 0.973325 129.312C1.88168 130.285 3.6984 130.415 14.0148 130.415H25.9532V137.422C25.9532 142.029 26.2127 144.689 26.7318 145.208C27.186 145.662 29.5218 145.986 32.5064 145.986C36.9833 145.986 37.697 145.792 38.5405 144.559C39.384 143.326 39.4488 142.937 38.6702 141.769C38.0214 140.796 36.9833 140.407 34.388 140.277L31.0141 140.082L31.2736 130.544C31.5331 121.526 31.6629 120.747 33.4796 116.789C34.5826 114.453 36.7886 111.274 38.3458 109.717C41.4602 106.603 47.689 103.358 51.1277 103.034L53.3338 102.839L60.925 121.331L68.5812 139.823L64.9478 140.017C63.0013 140.147 60.9899 140.536 60.5357 140.926C59.4976 141.769 59.4327 144.17 60.4709 145.208C61.5739 146.311 118.152 146.311 119.255 145.208C119.774 144.689 120.033 142.029 120.033 137.422V130.415H131.972C142.288 130.415 144.105 130.285 145.013 129.312C145.922 128.403 146.051 127.041 145.857 120.098C145.662 112.702 145.467 111.599 143.845 108.225C140.796 102.061 134.048 97.3244 128.338 97.3244C126.197 97.3244 126.197 97.4542 127.625 94.6642C129.052 91.8742 129.571 82.596 128.468 78.8977C125.808 69.9438 115.427 66.1158 107.251 71.1117C102.58 73.9666 100.568 78.3137 100.568 85.5806C100.568 89.7331 100.958 91.8742 101.866 94.0154C102.58 95.5726 103.164 96.9351 103.164 97.0649C103.164 97.1946 99.6601 97.3244 95.3778 97.3244C91.0956 97.3244 87.5919 97.1946 87.5919 97C87.5919 96.8053 88.5002 95.4428 89.5384 93.9505C92.6527 89.6682 93.4313 85.9699 93.4313 75.1994C93.4313 63.9097 92.3932 60.0168 88.0461 55.2803C84.0882 51.0629 79.8708 49.1165 73.9665 48.9218C71.3063 48.792 68.3866 48.9218 67.4782 49.2462ZM79.8708 55.8643C83.8936 57.8756 87.5919 63.2609 87.5919 67.1539C87.5919 68.5813 87.3324 68.776 85.1912 68.776C83.8287 68.776 80.9738 67.9974 78.8327 67.089C73.123 64.6235 72.5391 64.6235 68.7759 66.5051C66.8943 67.4783 63.7799 68.3867 61.8983 68.5813C58.4595 68.9706 58.3946 68.9057 58.3946 67.2188C58.3946 64.883 59.7572 61.7686 61.9632 59.1733C66.2454 54.1124 73.707 52.685 79.8708 55.8643ZM84.0233 74.3559L87.7217 74.8101L87.4621 81.1037C87.2675 86.6836 87.0728 87.6569 85.4508 90.0575C79.5464 99.0762 66.4401 99.0762 60.5357 90.0575C58.9137 87.6569 58.719 86.6836 58.5244 81.1037L58.2648 74.8101L62.0929 74.3559C64.1692 74.0963 67.4782 73.2529 69.4247 72.4094L72.9933 70.982L76.6916 72.4743C78.7029 73.2529 82.012 74.1612 84.0233 74.3559ZM35.6856 75.6535C38.7351 77.5351 39.903 80.1953 39.903 85.6455C39.903 89.2789 39.5786 91.0308 38.6702 92.5231C36.0749 96.8053 30.6897 98.103 26.4074 95.4428C20.5679 91.8742 20.6977 79.3519 26.5372 75.7184C28.7432 74.3559 33.3498 74.3559 35.6856 75.6535ZM119.384 75.6535C122.369 77.4702 123.602 80.1953 123.602 85.3211C123.602 87.7866 123.213 90.8361 122.693 91.9391C120.877 96.2214 114.648 98.1679 110.496 95.7023C107.251 93.7558 106.083 91.1605 106.083 85.6455C106.083 80.2602 107.186 77.6 110.236 75.7184C112.442 74.3559 117.049 74.3559 119.384 75.6535ZM34.1933 105.954C30.3004 109.912 27.3806 115.427 26.3425 120.812L25.6288 124.575H15.7017H5.70977L5.9693 118.152C6.16395 112.183 6.29372 111.469 8.11043 108.938C9.34321 107.187 11.3546 105.435 13.5606 104.332C16.9345 102.58 17.3238 102.515 27.2509 102.515H37.5023L34.1933 105.954ZM70.0735 106.148C70.0735 110.496 70.917 112.247 72.9933 112.247C75.0695 112.247 75.913 110.496 75.913 106.148V102.515H81.1036C83.9584 102.515 86.2942 102.775 86.2942 103.099C86.2942 103.618 73.3825 135.086 73.0581 135.411C72.8635 135.67 59.6923 103.618 59.6923 102.969C59.6923 102.71 62.0281 102.515 64.8829 102.515H70.0735V106.148ZM100.893 105.045C105.889 107.381 109.976 111.469 112.507 116.789C114.324 120.747 114.453 121.526 114.713 130.544L114.972 140.147H96.1564H77.2755L78.9625 136.059C79.8708 133.853 83.0501 126.067 86.0996 118.736C89.1491 111.404 91.8742 104.786 92.1986 104.007C92.6527 102.775 93.1069 102.58 94.8588 102.904C96.0267 103.099 98.7517 104.072 100.893 105.045ZM132.426 104.332C134.632 105.435 136.643 107.187 137.876 108.938C139.693 111.469 139.823 112.183 140.017 118.152L140.277 124.575H130.285H120.358L119.644 120.812C118.606 115.427 115.686 109.912 111.793 105.954L108.484 102.515H118.736C128.663 102.515 129.052 102.58 132.426 104.332Z" fill="black"/>
<path d="M47.7537 140.991C45.2882 142.743 47.8835 147.155 50.4788 145.598C52.036 144.559 52.2955 142.029 50.8681 140.991C50.2193 140.537 49.5056 140.147 49.3109 140.147C49.1163 140.147 48.4026 140.537 47.7537 140.991Z" fill="black"/>
</svg>
