<svg width="100%" height="100%" viewBox="0 0 128 128" fill="none" preserveAspectRatio="none" xmlns="http://www.w3.org/2000/svg">
<path d="M28 7C28 13.8 28.1 14 30.5 14C32.9 14 33 13.8 33 7C33 0.2 32.9 -2.08616e-07 30.5 -2.08616e-07C28.1 -2.08616e-07 28 0.2 28 7Z" fill="black"/>
<path d="M95 7C95 13.8 95.1 14 97.5 14C99.9 14 100 13.8 100 7C100 0.2 99.9 -2.08616e-07 97.5 -2.08616e-07C95.1 -2.08616e-07 95 0.2 95 7Z" fill="black"/>
<path d="M4.70003 4.6993C2.90003 6.3993 4.60003 9.1993 11 15.3993C18 22.1993 19.5 22.7993 21.4 19.6993C22.3 18.2993 21.2 16.7993 15.5 10.9993C9.10003 4.4993 6.40003 2.9993 4.70003 4.6993Z" fill="black"/>
<path d="M112.5 10.9993C106.8 16.7993 105.7 18.2993 106.6 19.6993C108.5 22.7993 110 22.1993 117.1 15.3993C122 10.5993 124 7.9993 123.8 6.4993C123.2 2.2993 119.7 3.6993 112.5 10.9993Z" fill="black"/>
<path d="M74.5 14.1997C73.4 14.7997 70.6 17.0997 68.3 19.2997L64.1 23.2997L60.3 20.0997C54.3 15.0997 48 16.2997 44.5 23.0997C43.6 24.6997 42.4 25.9997 41.6 25.9997C39.8 25.9997 36 30.2997 36 32.2997C36 33.1997 35.3 33.9997 34.4 33.9997C33.6 33.9997 31.5 35.3997 29.8 36.9997C27.4 39.4997 26.9 40.6997 27.2 43.1997C27.6 45.6997 27.2 46.7997 25.1 48.5997C21.5 51.6997 21.5 57.7997 25.3 61.6997L28 64.5997L14 78.4997C4.2 88.1997 0 93.1997 0 94.6997C0 99.4997 4.1 97.3997 14 87.4997L23.5 77.9997L32 86.4997L40.4 94.9997L25.7 109.8C15 120.7 11.1 125.2 11.6 126.4C13.1 130.4 16.6 127.9 36.7 107.8C56.3 88.1997 57.1 87.5997 59.2 88.9997C64.8 92.4997 68.7 93.9997 72.5 93.9997C76.4 93.9997 77.1 94.5997 93.5 111C105.5 123 111.1 128 112.7 128C117.5 128 115.4 123.9 105.3 113.8C97.7 106.1 95.8 103.8 96.8 102.8C100 99.5997 96.6 95.4997 92.7 97.8997C91 98.9997 90.4 98.8997 88.6 97.0997L86.5 94.9997L96.3 85.2997L106 75.4997L108.2 77.7997C109.9 79.4997 110.2 80.1997 109.2 81.1997C106 84.3997 109.4 88.4997 113.3 86.0997C115 84.9997 115.7 85.2997 119.4 88.8997C124.1 93.4997 128 94.3997 128 90.7997C128 89.2997 124.9 85.3997 118.8 79.2997C110 70.4997 109.5 69.6997 108.3 63.8997L107.1 57.6997L110 54.2997C112.1 51.9997 113 49.8997 113 47.5997C113 43.7997 109.7 38.9997 107.1 38.9997C106.1 38.9997 104.8 37.5997 103.9 35.6997C103.1 33.8997 101.1 31.8997 99.3 30.9997C97.5 30.1997 96 28.9997 96 28.3997C96 26.2997 91.9 21.9997 89.9 21.9997C88.7 21.9997 87.8 21.0997 87.4 19.4997C86.1 14.2997 79.3 11.4997 74.5 14.1997ZM81 20.4997C82.1 21.7997 81.7 22.6997 78.7 25.7997C72 32.6997 75.1 38.2997 81.9 31.5997C85.8 27.7997 88.7 26.9997 89.7 29.5997C90.1 30.5997 88.5 32.8997 85 36.4997C79.6 41.9997 78.7 45.1997 82.5 45.7997C83.8 45.9997 86.2 44.2997 89.5 40.9997C94.8 35.5997 96 35.0997 98 37.5997C99.1 38.8997 98.6 39.8997 94.2 44.2997C88.9 49.5997 87.6 53.2997 90.6 54.3997C91.6 54.7997 94 53.1997 97.4 49.9997C102.9 44.7997 105.6 43.7997 106.7 46.5997C107.6 48.9997 83 73.2997 76.5 76.4997C73.6 77.8997 68.2 79.3997 63.7 79.9997C59.4 80.4997 55.5 81.1997 55.1 81.3997C54.7 81.6997 51.3 78.8997 47.6 75.0997C41 68.3997 40.9 68.3997 43 66.4997C44.1 65.4997 45 64.0997 45 63.3997C45 62.6997 46 61.4997 47.3 60.8997C50.9 58.9997 54 55.7997 54 53.7997C54 52.7997 54.7 51.9997 55.7 51.9997C57.7 51.9997 62 48.1997 62 46.3997C62 45.5997 63.3 44.3997 64.9 43.4997C70.5 40.6997 72.6 34.5997 69.8 29.9997C68.7 28.2997 69.1 27.4997 73 23.4997C77.8 18.5997 79.1 18.1997 81 20.4997ZM59.7 28.1997C65.4 33.7997 65.9 34.9997 63.4 37.0997C62.1 38.1997 61 37.4997 55.8 32.1997C50.5 26.9997 49.8 25.8997 50.9 24.5997C52.9 22.1997 54 22.5997 59.7 28.1997ZM52.4 37.9997C56.3 42.1997 56.9 43.3997 56 44.4997C54.1 46.7997 52.9 46.2997 47.3 40.7997C41.8 35.3997 41.2 34.1997 43.2 32.1997C44.7 30.6997 46.7 31.8997 52.4 37.9997ZM42.7 45.1997C48.4 50.7997 48.9 51.9997 46.4 54.0997C45.1 55.1997 44 54.4997 38.8 49.1997C33.5 43.9997 32.8 42.8997 33.9 41.5997C35.9 39.1997 37 39.5997 42.7 45.1997ZM36.4 56.0997C39.4 59.2997 39.9 60.3997 38.9 61.5997C37.2 63.6997 36 63.3997 32.3 59.7997C29.2 56.7997 28.2 54.0997 29.7 52.6997C31.1 51.1997 32.9 52.1997 36.4 56.0997ZM103 67.4997C103 68.7997 99 73.4997 92.5 79.9997C84.3 88.1997 81.8 90.1997 80.8 89.1997C80.1 88.4997 77.5 87.9997 74.9 87.9997C66.6 87.9997 66.1 86.8997 73.2 84.4997C81.2 81.7997 86.6 78.0997 95 69.5997C101.4 62.9997 102.9 62.5997 103 67.4997ZM47.2 88.1997L45 90.4997L36.5 81.9997L28 73.5997L30.2 71.2997L32.4 68.8997L40.9 77.4997L49.5 85.9997L47.2 88.1997Z" fill="black"/>
<path d="M0 30.5C0 32.9 0.2 33 7 33C13.8 33 14 32.9 14 30.5C14 28.1 13.8 28 7 28C0.2 28 0 28.1 0 30.5Z" fill="black"/>
<path d="M114 30.5C114 32.9 114.2 33 121 33C127.8 33 128 32.9 128 30.5C128 28.1 127.8 28 121 28C114.2 28 114 28.1 114 30.5Z" fill="black"/>
<path d="M100.4 90.3995C99.4002 92.9995 100.8 95.1995 103.2 94.7995C104.9 94.5995 105.5 93.7995 105.5 91.9995C105.5 90.1995 104.9 89.3995 103.2 89.1995C101.9 88.9995 100.7 89.4995 100.4 90.3995Z" fill="black"/>
</svg>
